<?xml version="1.0" encoding="UTF-8" standalone="no"?>
<!-- Created with Inkscape (http://www.inkscape.org/) -->

<svg
   xmlns:dc="http://purl.org/dc/elements/1.1/"
   xmlns:cc="http://creativecommons.org/ns#"
   xmlns:rdf="http://www.w3.org/1999/02/22-rdf-syntax-ns#"
   xmlns:svg="http://www.w3.org/2000/svg"
   xmlns="http://www.w3.org/2000/svg"
   xmlns:sodipodi="http://sodipodi.sourceforge.net/DTD/sodipodi-0.dtd"
   xmlns:inkscape="http://www.inkscape.org/namespaces/inkscape"
   id="svg5249"
   version="1.1"
   inkscape:version="0.91 r13725"
   width="1920"
   height="1280"
   viewBox="0 0 1920 1280"
   sodipodi:docname="meat.svg">
  <metadata
     id="metadata5255">
    <rdf:RDF>
      <cc:Work
         rdf:about="">
        <dc:format>image/svg+xml</dc:format>
        <dc:type
           rdf:resource="http://purl.org/dc/dcmitype/StillImage" />
        <dc:title></dc:title>
      </cc:Work>
    </rdf:RDF>
  </metadata>
  <defs
     id="defs5253" />
  <sodipodi:namedview
     pagecolor="#ffffff"
     bordercolor="#666666"
     borderopacity="1"
     objecttolerance="10"
     gridtolerance="10"
     guidetolerance="10"
     inkscape:pageopacity="0"
     inkscape:pageshadow="2"
     inkscape:window-width="1500"
     inkscape:window-height="937"
     id="namedview5251"
     showgrid="false"
     inkscape:zoom="0.46845824"
     inkscape:cx="1028.0327"
     inkscape:cy="622.39419"
     inkscape:window-x="-8"
     inkscape:window-y="-8"
     inkscape:window-maximized="1"
     inkscape:current-layer="svg5249" />
  <path
     style="fill:#fcdfd2;fill-opacity:1;fill-rule:evenodd;stroke:#fcd6c7;stroke-width:8;stroke-linecap:butt;stroke-linejoin:miter;stroke-miterlimit:4;stroke-dasharray:none;stroke-opacity:1"
     d="m 311.66065,201.9957 c 62.06816,-82.75755 129.67398,-78.15085 219.87018,-98.19445 37.97526,-8.438949 69.23644,-35.453738 106.7331,-44.827904 191.6611,-47.915275 294.51152,-28.853853 463.22167,55.501214 32.1615,16.08076 59.369,53.98006 89.6558,71.51118 224.308,129.83765 115.8191,101.0108 199.5909,145.15701 66.8514,35.22945 16.2252,79.79387 152.6284,159.03231 27.4073,15.92132 77.178,48.6138 83.2518,78.9825 5.4603,27.30179 4.3579,64.21714 17.0773,89.6558 8.1802,16.36059 24.8635,29.07167 32.0199,46.96257 9.2978,23.24463 4.4812,55.92507 14.9426,76.84783 55.4621,110.92422 151.0519,152.57927 81.1172,292.44864 -27.7365,55.473 -102.0064,91.1425 -155.8304,104.5985 -12.3755,3.0939 -24.9276,17.8005 -36.2892,23.4813 -63.0243,31.5121 -207.5497,55.0642 -281.7754,42.6932 -148.2812,-24.7135 -295.3199,-92.1095 -446.14437,-108.8678 -27.84398,-3.0937 -306.50571,-16.1916 -307.39133,-17.0773 -19.36209,-19.362 -39.99006,-7.3291 -70.44384,-14.9426 -17.36087,-4.3402 -23.42327,-26.6688 -44.8279,-32.0199 -42.36039,-10.5901 -97.31768,15.3175 -138.75303,-19.212 -18.13739,-15.1145 -40.07024,-42.3862 -44.8279,-66.17449 -4.38065,-21.90324 20.60226,-0.17088 12.80797,-70.44385 -5.18354,-46.73459 -27.75061,-105.37748 -27.75061,-153.69566 0,-31.74246 4.95983,-29.91955 -8.53865,-58.70321 -18.25349,-38.92306 6.63797,-91.50297 -23.48128,-139.82035 -67.98314,-109.05872 -65.76723,-96.87437 0,-228.40884 28.89342,-57.78684 57.84825,-101.3596 89.70944,-92.59882 23.42765,-41.88488 8.98646,-22.62997 23.42765,-41.88488 z"
     id="path5281"
     inkscape:connector-curvature="0"
     sodipodi:nodetypes="sssssssssssssssscssssssssscs" />
  <path
     style="fill:#a23a36;fill-rule:evenodd;stroke:#fcd6c7;stroke-width:15.69999981;stroke-linecap:butt;stroke-linejoin:miter;stroke-miterlimit:4;stroke-dasharray:none;stroke-opacity:1;fill-opacity:1"
     d="m 845.32615,581.96553 c -29.94934,-14.3422 -53.08938,-37.21799 -81.11716,-51.23189 -40.01527,-20.00763 -53.80287,-6.8403 -91.79047,-44.8279 -14.01217,-14.01218 -0.34707,-63.51925 8.53865,-76.84783 20.15834,-30.2375 46.66879,-56.53261 68.30919,-85.38648 38.33404,-51.11205 133.57023,-260.885495 219.87018,-217.73552 59.37946,29.68973 143.37136,17.7172 172.90766,74.71317 20.61,39.77106 69.5745,74.60406 96.0597,113.13708 29.1206,42.36731 64.0345,87.1167 32.02,111.00242 -36.5455,27.26623 -95.7614,33.47489 -228.4089,100.32912 -94.09376,47.42321 -102.54781,79.02454 -196.38885,76.84783 z"
     id="path5259"
     inkscape:connector-curvature="0"
     sodipodi:nodetypes="csssssssssc" />
  <path
     style="fill:#df5e56;fill-rule:evenodd;stroke:#fcd6c7;stroke-width:15.69999981;stroke-linecap:butt;stroke-linejoin:miter;stroke-miterlimit:4;stroke-dasharray:none;stroke-opacity:1;fill-opacity:1"
     d="m 717.24643,330.07542 c -54.14893,26.3822 -73.60155,-2.10513 -108.86776,-25.61595 -37.84526,-25.23017 -99.57786,-43.32538 -117.40641,-78.98249 -45.6786,-91.3572 166.97709,-149.584156 224.1395,-168.638296 22.13944,-7.379812 55.24759,8.914855 74.71317,12.807972 16.8453,3.369059 40.64283,30.910474 64.03986,19.211958 8.34597,-4.172985 42.69324,-9.597497 42.69324,2.134662 0,45.086674 -97.88802,86.298874 -121.67573,125.945054 -20.94279,34.90465 -41.24002,80.34538 -57.63587,113.13709 z"
     id="path5261"
     inkscape:connector-curvature="0"
     sodipodi:nodetypes="csssssssc" />
  <path
     style="fill:#91322c;fill-opacity:1;fill-rule:evenodd;stroke:#fcd6c7;stroke-width:9.60000038;stroke-linecap:butt;stroke-linejoin:miter;stroke-miterlimit:4;stroke-dasharray:none;stroke-opacity:1"
     d="m 1003.2911,541.40695 c 73.1383,-43.18055 170.3454,-122.61511 260.4288,-104.59843 9.7022,1.94045 28.6626,-5.94801 36.2892,-2.13467 35.0506,17.5253 87.8335,43.30754 125.9451,66.17453 29.8775,17.92648 51.2242,68.30151 76.8478,93.92512 58.3339,58.33382 97.3645,152.86571 147.2917,202.79289 19.2041,19.20408 -14.6963,87.76743 -17.0773,85.38648 -8.3327,-8.33276 -12.3382,-35.3016 -20.2256,-43.18898 -37.0007,-37.00064 -89.8404,-54.2618 -139.874,-61.40946 -58.0025,-8.28607 -112.3777,-12.80797 -170.773,-12.80797 -19.1592,0 -41.9536,28.49022 -55.5012,14.94264 -5.8857,-5.88568 1.4541,-45.70075 -6.404,-51.23189 -38.3099,-26.96543 -49.3231,-83.14308 -87.5211,-104.59844 -37.6342,-21.13872 -40.5488,-66.69069 -108.8678,-72.57851 -23.9685,-2.06564 -55.63563,4.40376 -40.5586,-10.67331 z"
     id="path5263"
     inkscape:connector-curvature="0"
     sodipodi:nodetypes="csssssssssssssc" />
  <path
     style="fill:#9a322e;fill-opacity:1;fill-rule:evenodd;stroke:#fcd6c7;stroke-width:11;stroke-linecap:butt;stroke-linejoin:miter;stroke-miterlimit:4;stroke-dasharray:none;stroke-opacity:1"
     d="m 1300.0091,981.14732 c 51.0952,85.81458 120.4103,102.46378 202.7929,102.46378 30.772,0 73.6306,11.7254 89.6558,27.7506 8.0661,8.066 47.8259,-15.2238 36.4188,-15.2238 -1.6066,0 -52.7046,76.6768 -68.4387,85.6676 -46.6439,26.6537 -193.4176,68.7276 -249.7554,40.5586 -17.2352,-8.6175 -39.0929,-7.0729 -51.2319,-19.2119 -33.2578,-33.2578 -94.2112,-187.5643 -64.0399,-217.73555 40.0906,-101.96198 15.3122,-154.22596 104.5984,-4.26933 z"
     id="path5265"
     inkscape:connector-curvature="0"
     sodipodi:nodetypes="ssssssscs" />
  <path
     style="fill:#993d3a;fill-rule:evenodd;stroke:#fcd6c7;stroke-width:10;stroke-linecap:butt;stroke-linejoin:miter;stroke-miterlimit:4;stroke-dasharray:none;stroke-opacity:1;fill-opacity:1"
     d="m 838.92216,579.83087 c -18.63436,6.45291 -179.31161,16.92667 -179.31161,-8.53865 0,-20.53616 80.9654,3.4566 34.15459,-27.7506 -9.5239,-6.34928 -18.32791,-11.29862 -25.61594,-14.94264 -152.21509,-76.10754 89.19052,-116.57172 -104.59844,-213.4662 -53.82178,-26.91089 -161.74247,-96.55162 -217.73552,-40.55857 -5.4946,5.4946 17.40213,41.8579 19.21196,49.09722 6.18595,24.74379 -2.1045,44.76758 -12.80797,66.17452 -44.4167,88.83339 -184.2852,106.00698 -185.7156,108.86776 -10.6404,21.28082 38.95711,56.56759 46.96257,72.57851 10.71798,21.43597 -7.62911,58.22985 0,81.11716 25.7524,77.25719 17.59103,163.45019 43.76057,245.48613 29.78129,93.35804 146.55594,150.65849 231.61082,164.36899 11.19043,1.8038 26.72499,5.3783 34.1546,12.8079 15.66192,15.662 54.3096,-2.5318 74.71317,4.2694 3.15849,1.0528 29.63968,6.6495 32.01992,4.2693 22.89258,-22.8926 126.16187,8.105 145.15702,-29.8853 18.87898,-37.7579 -194.14164,-64.15243 -143.02235,-115.27172 13.16931,-13.16931 77.51734,10.11248 96.05979,6.40399 52.1227,-10.42454 124.90069,-79.05141 140.88769,-127.01239 13.05893,-39.1768 75.92559,-58.8483 98.19445,-81.11716 5.92468,-5.92468 -123.05289,-155.89228 -128.07972,-156.89765 z"
     id="path5267"
     inkscape:connector-curvature="0"
     sodipodi:nodetypes="cssssssssssssssssssssc" />
  <path
     style="fill:#af413d;fill-rule:evenodd;stroke:#fcd6c7;stroke-width:15.69999981;stroke-linecap:butt;stroke-linejoin:miter;stroke-miterlimit:4;stroke-dasharray:none;stroke-opacity:1;fill-opacity:1"
     d="m 967.00188,739.93052 c -64.69233,34.40866 -80.14372,79.31975 -136.61837,121.67573 -45.61188,34.20891 -70.15923,81.11716 -130.21438,81.11716 -1.15953,0 -98.03952,-16.92237 -72.57851,8.53864 36.41455,36.41456 63.02287,45.33534 112.06975,67.24185 80.0144,35.7379 20.13283,34.8805 35.22193,37.3566 22.08981,3.6248 93.04133,-15.8288 115.27175,-14.9426 9.70029,0.3867 130.21435,35.6841 130.21435,27.7506 0,-10.0224 -62.16043,-55.8841 -70.44382,-68.3092 -40.84534,-61.26803 -14.90775,-244.43626 29.88527,-266.83277"
     id="path5269"
     inkscape:connector-curvature="0"
     sodipodi:nodetypes="cssssssssc" />
  <path
     style="fill:#9f3636;fill-opacity:1;fill-rule:evenodd;stroke:#fcd6c7;stroke-width:9;stroke-linecap:butt;stroke-linejoin:miter;stroke-miterlimit:4;stroke-dasharray:none;stroke-opacity:1"
     d="m 973.40586,904.29949 c -12.96049,-25.91769 -25.61594,-60.45664 -25.61594,-89.6558 0,-3.91118 4.23367,-14.90699 2.13466,-12.80797 -24.52371,24.52371 -37.95944,152.02547 -8.53865,181.44626 21.13713,21.13712 41.30311,43.90112 68.30917,61.90522 1.4283,0.9522 18.7392,16.4827 14.9427,20.2793 0.054,17.3183 -183.32479,-55.7575 -236.94753,-2.1347 -23.34441,23.3445 186.44006,48.7544 196.3889,58.7032 21.92473,21.9248 309.30383,130.4365 322.33393,117.4064 0.8682,-0.8681 -64.4929,-49.5503 -70.4438,-55.5012 -26.8615,-26.8615 -59.5181,-144.5791 -55.0166,-158.0834 -103.0862,16.2247 -167.0497,-40.57328 -207.54684,-121.55731 z"
     id="path5271"
     inkscape:connector-curvature="0"
     sodipodi:nodetypes="ssssscsscscs" />
  <path
     style="fill:#ffecee;fill-rule:evenodd;stroke:#fcd6c7;stroke-width:15.69999981;stroke-linecap:butt;stroke-linejoin:miter;stroke-miterlimit:4;stroke-dasharray:none;stroke-opacity:1;fill-opacity:1"
     d="m 954.19391,803.97038 c 8.60204,41.47807 47.42909,100.44573 89.65579,111.00242 178.073,44.51825 160.3007,-202.79289 0,-202.79289 -35.7536,0 -113.90206,43.29793 -89.65579,91.79047 z"
     id="path5273"
     inkscape:connector-curvature="0"
     sodipodi:nodetypes="cssc" />
  <path
     style="fill:#8c2d29;fill-rule:evenodd;stroke:#fcd6c7;stroke-width:9;stroke-linecap:butt;stroke-linejoin:miter;stroke-miterlimit:4;stroke-dasharray:none;stroke-opacity:1;fill-opacity:1"
     d="m 999.02181,722.85322 c -17.69405,0.78267 -36.53204,-2.37744 -49.09723,-14.94263 -31.73729,-31.73729 -44.51526,-131.89354 17.0773,-147.29168 41.29272,-10.32318 52.61292,-4.78367 90.08482,-4.55052 38.5399,0.23979 194.9719,171.29723 191.0653,210.1033 -2.6309,26.13349 -55.6354,245.62031 -69.8186,259.80351 -3.2145,3.2145 -33.3495,-2.1349 -38.9419,-2.1346 -90.2727,0 -131.7111,-48.24147 -170.77291,-134.48374 -16.70418,-36.88017 -31.93347,-102.89527 -14.42468,-85.38648 15.80605,15.80606 27.38471,45.76315 42.69324,66.17452 32.74595,43.66126 97.96425,66.40468 132.34905,32.01993 13.6667,-13.66676 32.0301,-19.2426 38.4239,-38.42392 40.0355,-120.1065 -120.7533,-204.73441 -168.63829,-140.88769 z"
     id="path5275"
     inkscape:connector-curvature="0"
     sodipodi:nodetypes="csssssssssssc" />
  <path
     style="fill:#ad3d39;fill-opacity:1;fill-rule:evenodd;stroke:#fcd6c7;stroke-width:8.89000034;stroke-linecap:butt;stroke-linejoin:miter;stroke-miterlimit:4;stroke-dasharray:none;stroke-opacity:1"
     d="m 1246.6426,782.62376 c -43.0825,187.94697 -12.0026,31.42947 -14.2324,99.69278 6.2239,6.22389 21.7237,22.38005 26.8998,30.14424 28.1108,42.16619 50.789,85.24363 91.931,122.05312 69.997,62.6259 175.1899,23.4673 233.0667,75.2089 7.6032,6.7973 24.34,8.9658 31.6314,1.6389 93.8594,-94.3168 30.135,-304.39265 -96.0598,-330.8726 -32.694,-6.8603 -168.8662,-20.25818 -202.7929,-21.34662 -26.1037,-0.83746 -52.3385,23.48128 -70.4438,23.48128 z"
     id="path5277"
     inkscape:connector-curvature="0"
     sodipodi:nodetypes="ccssssssc" />
  <path
     style="fill:#fff6f7;fill-rule:evenodd;stroke:#fcd6c7;stroke-width:15.69999981;stroke-linecap:butt;stroke-linejoin:miter;stroke-miterlimit:4;stroke-dasharray:none;stroke-opacity:1;fill-opacity:1"
     d="m 187.85025,485.90574 c -63.74083,35.65752 -26.77693,-62.69154 -17.07729,-91.79046 7.03806,-21.11419 19.97692,-37.77913 34.15459,-55.50121 22.26843,-27.83555 30.76829,-64.62855 61.9052,-85.38648 74.39095,-49.59397 110.53857,75.64088 85.38648,125.94505 -18.20515,36.41029 -50.9302,50.56361 -81.11716,74.71317 -25.81471,20.65178 -53.12563,37.04096 -83.25182,32.01993 z"
     id="path5279"
     inkscape:connector-curvature="0"
     sodipodi:nodetypes="csssssc" />
  <g
     inkscape:groupmode="layer"
     id="layer1"
     inkscape:label="Layer 1" />
</svg>
