<svg id="图层_1" data-name="图层 1" xmlns="http://www.w3.org/2000/svg" viewBox="0 0 1072.4 811.5"><defs><style>.cls-1{fill:#ccc;}.cls-2{fill:#2b7aae;}.cls-3{isolation:isolate;}</style></defs><title>1 visible non visible-1</title><rect class="cls-1" width="1072.4" height="811.5"/><g id="main"><path class="cls-2" d="M587.2,386.1c-17.2,64.6-84,101.9-148.9,83.4S334.7,383.6,351.9,319c4.2-16,108.2,45.7,117.7,33.6C484,334.2,407,244.4,429,237.1a122,122,0,0,1,71.9-1.4C565.8,254.1,604.4,321.5,587.2,386.1Z" transform="translate(25.4 22.3)"/></g><g class="cls-3"><path d="M347.67,302.26l-5-12.88h1.85l3.35,9.36q0.4,1.13.68,2.11,0.3-1.05.69-2.11l3.48-9.36h1.74l-5,12.88h-1.75Z" transform="translate(25.4 22.3)"/><path d="M355.47,291.19v-1.82h1.58v1.82h-1.58Zm0,11.07v-9.33h1.58v9.33h-1.58Z" transform="translate(25.4 22.3)"/><path d="M358.83,299.47l1.56-.25a2.19,2.19,0,0,0,.73,1.44,2.56,2.56,0,0,0,1.68.5,2.47,2.47,0,0,0,1.62-.44,1.33,1.33,0,0,0,.53-1,1,1,0,0,0-.47-0.84,6.86,6.86,0,0,0-1.62-.54,14.77,14.77,0,0,1-2.41-.76,2.31,2.31,0,0,1-1.37-2.14,2.41,2.41,0,0,1,.29-1.16,2.57,2.57,0,0,1,.78-0.88,3.26,3.26,0,0,1,1-.46,4.79,4.79,0,0,1,1.37-.19,5.4,5.4,0,0,1,1.93.32,2.62,2.62,0,0,1,1.23.86,3.34,3.34,0,0,1,.54,1.45l-1.55.21a1.69,1.69,0,0,0-.61-1.12,2.23,2.23,0,0,0-1.43-.4,2.59,2.59,0,0,0-1.56.36,1,1,0,0,0-.47.84,0.87,0.87,0,0,0,.19.55,1.4,1.4,0,0,0,.61.42q0.24,0.09,1.4.4a19.43,19.43,0,0,1,2.34.73,2.38,2.38,0,0,1,1,.83,2.32,2.32,0,0,1,.38,1.35,2.66,2.66,0,0,1-.46,1.49,3,3,0,0,1-1.33,1.08,4.83,4.83,0,0,1-2,.38,4.39,4.39,0,0,1-2.77-.76A3.52,3.52,0,0,1,358.83,299.47Z" transform="translate(25.4 22.3)"/><path d="M368.47,291.19v-1.82h1.58v1.82h-1.58Zm0,11.07v-9.33h1.58v9.33h-1.58Z" transform="translate(25.4 22.3)"/><path d="M373.92,302.26h-1.47V289.37H374V294a3.13,3.13,0,0,1,2.56-1.26,3.92,3.92,0,0,1,1.63.35,3.34,3.34,0,0,1,1.27,1,4.73,4.73,0,0,1,.78,1.52,6.25,6.25,0,0,1,.28,1.9,5.33,5.33,0,0,1-1.19,3.71,3.71,3.71,0,0,1-2.85,1.31,3,3,0,0,1-2.59-1.38v1.17Zm0-4.74a4.84,4.84,0,0,0,.46,2.43,2.26,2.26,0,0,0,3.81.32,4.1,4.1,0,0,0,.76-2.69,4.16,4.16,0,0,0-.73-2.7,2.21,2.21,0,0,0-1.75-.87,2.28,2.28,0,0,0-1.79.9A4,4,0,0,0,373.9,297.52Z" transform="translate(25.4 22.3)"/><path d="M382.44,302.26V289.37H384v12.88h-1.58Z" transform="translate(25.4 22.3)"/><path d="M392.86,299.25l1.63,0.2a4,4,0,0,1-1.43,2.22,4.85,4.85,0,0,1-5.92-.47,4.93,4.93,0,0,1-1.2-3.54,5.16,5.16,0,0,1,1.21-3.66,4.11,4.11,0,0,1,3.15-1.3,4,4,0,0,1,3.06,1.27,5.06,5.06,0,0,1,1.19,3.59q0,0.14,0,.42h-7a3.59,3.59,0,0,0,.87,2.36,2.59,2.59,0,0,0,2,.82,2.42,2.42,0,0,0,1.49-.46A3,3,0,0,0,392.86,299.25Zm-5.19-2.56h5.21a3.16,3.16,0,0,0-.6-1.77,2.42,2.42,0,0,0-2-.91,2.51,2.51,0,0,0-1.83.73A2.89,2.89,0,0,0,387.66,296.69Z" transform="translate(25.4 22.3)"/><path d="M403.2,302.26l-2.86-9.33H402l1.49,5.39,0.55,2,0.48-1.92,1.49-5.47h1.63l1.4,5.41,0.47,1.78,0.54-1.8,1.6-5.4h1.54l-2.92,9.33h-1.64l-1.49-5.59-0.36-1.59-1.89,7.18H403.2Z" transform="translate(25.4 22.3)"/><path d="M420.57,301.11a5.89,5.89,0,0,1-1.69,1.05,4.89,4.89,0,0,1-1.74.31,3.39,3.39,0,0,1-2.36-.75,2.48,2.48,0,0,1-.83-1.92,2.55,2.55,0,0,1,.31-1.25,2.58,2.58,0,0,1,.82-0.91,3.84,3.84,0,0,1,1.14-.52,11.3,11.3,0,0,1,1.41-.24,14.46,14.46,0,0,0,2.82-.54q0-.33,0-0.41a1.75,1.75,0,0,0-.45-1.36,2.65,2.65,0,0,0-1.8-.54,2.79,2.79,0,0,0-1.65.39,2.39,2.39,0,0,0-.79,1.38l-1.55-.21a3.84,3.84,0,0,1,.69-1.6,3,3,0,0,1,1.4-.94,6.21,6.21,0,0,1,2.12-.33,5.61,5.61,0,0,1,1.94.28,2.57,2.57,0,0,1,1.1.71,2.5,2.5,0,0,1,.49,1.08,8.91,8.91,0,0,1,.08,1.46v2.11a22.37,22.37,0,0,0,.1,2.79,3.51,3.51,0,0,0,.4,1.12h-1.65A3.35,3.35,0,0,1,420.57,301.11Zm-0.13-3.53a11.61,11.61,0,0,1-2.58.6,6,6,0,0,0-1.38.32,1.38,1.38,0,0,0-.62.51,1.4,1.4,0,0,0,.26,1.81,2.06,2.06,0,0,0,1.4.42,3.26,3.26,0,0,0,1.63-.4,2.46,2.46,0,0,0,1-1.09,3.82,3.82,0,0,0,.25-1.58v-0.58Z" transform="translate(25.4 22.3)"/><path d="M427.94,300.84l0.23,1.4a5.87,5.87,0,0,1-1.2.14,2.71,2.71,0,0,1-1.34-.27,1.52,1.52,0,0,1-.67-0.72,5.67,5.67,0,0,1-.19-1.87v-5.37h-1.16v-1.23h1.16v-2.31l1.57-.95v3.26h1.59v1.23h-1.59v5.46a2.76,2.76,0,0,0,.08.87,0.66,0.66,0,0,0,.27.31,1.05,1.05,0,0,0,.54.11A5.15,5.15,0,0,0,427.94,300.84Z" transform="translate(25.4 22.3)"/><path d="M435.88,299.25l1.63,0.2a4,4,0,0,1-1.43,2.22,4.85,4.85,0,0,1-5.92-.47,4.93,4.93,0,0,1-1.2-3.54,5.16,5.16,0,0,1,1.21-3.66,4.11,4.11,0,0,1,3.15-1.3,4,4,0,0,1,3.06,1.27,5.06,5.06,0,0,1,1.19,3.59q0,0.14,0,.42h-7a3.59,3.59,0,0,0,.87,2.36,2.59,2.59,0,0,0,2,.82,2.42,2.42,0,0,0,1.49-.46A3,3,0,0,0,435.88,299.25Zm-5.19-2.56h5.21a3.16,3.16,0,0,0-.6-1.77,2.42,2.42,0,0,0-2-.91,2.51,2.51,0,0,0-1.83.73A2.89,2.89,0,0,0,430.69,296.69Z" transform="translate(25.4 22.3)"/><path d="M439.48,302.26v-9.33h1.42v1.42a3.86,3.86,0,0,1,1-1.31,1.76,1.76,0,0,1,1-.32,3.09,3.09,0,0,1,1.63.51L444,294.69a2.26,2.26,0,0,0-1.16-.34,1.51,1.51,0,0,0-.93.31,1.69,1.69,0,0,0-.59.87,6.16,6.16,0,0,0-.26,1.85v4.89h-1.58Z" transform="translate(25.4 22.3)"/></g><g class="cls-3"><path d="M412.55,401.24v-15h2v15h-2Z" transform="translate(25.4 22.3)"/><path d="M417.81,401.24V390.35h1.66v1.55a3.92,3.92,0,0,1,3.47-1.79,4.56,4.56,0,0,1,1.81.35,2.85,2.85,0,0,1,1.24.93,3.56,3.56,0,0,1,.57,1.36,10.58,10.58,0,0,1,.1,1.79v6.7h-1.85v-6.62a5,5,0,0,0-.22-1.69,1.78,1.78,0,0,0-.76-0.89,2.43,2.43,0,0,0-1.29-.33,3,3,0,0,0-2,.75,3.69,3.69,0,0,0-.86,2.84v5.95h-1.85Z" transform="translate(25.4 22.3)"/><path d="M432.52,401.24l-4.14-10.89h1.95l2.34,6.52q0.38,1.06.7,2.19,0.25-.86.69-2.07l2.42-6.64h1.9l-4.12,10.89h-1.72Z" transform="translate(25.4 22.3)"/><path d="M440,388.33v-2.12h1.85v2.12H440Zm0,12.91V390.35h1.85v10.89H440Z" transform="translate(25.4 22.3)"/><path d="M443.92,398l1.83-.29a2.55,2.55,0,0,0,.86,1.68,3,3,0,0,0,2,.58,2.89,2.89,0,0,0,1.89-.52,1.55,1.55,0,0,0,.62-1.21,1.12,1.12,0,0,0-.54-1,8,8,0,0,0-1.89-.63,17.29,17.29,0,0,1-2.81-.89,2.69,2.69,0,0,1-1.59-2.5,2.8,2.8,0,0,1,.33-1.35,3,3,0,0,1,.91-1,3.79,3.79,0,0,1,1.17-.54,5.57,5.57,0,0,1,1.59-.22,6.31,6.31,0,0,1,2.25.37,3.06,3.06,0,0,1,1.43,1,3.9,3.9,0,0,1,.64,1.69l-1.8.25a2,2,0,0,0-.71-1.31,2.61,2.61,0,0,0-1.67-.47,3,3,0,0,0-1.81.42,1.22,1.22,0,0,0-.54,1,1,1,0,0,0,.23.65,1.63,1.63,0,0,0,.71.49q0.28,0.1,1.63.47a22.63,22.63,0,0,1,2.73.86,2.77,2.77,0,0,1,1.21,1A2.7,2.7,0,0,1,453,398a3.1,3.1,0,0,1-.54,1.74,3.48,3.48,0,0,1-1.55,1.26,5.65,5.65,0,0,1-2.3.45,5.12,5.12,0,0,1-3.23-.88A4.1,4.1,0,0,1,443.92,398Z" transform="translate(25.4 22.3)"/><path d="M455.17,388.33v-2.12H457v2.12h-1.85Zm0,12.91V390.35H457v10.89h-1.85Z" transform="translate(25.4 22.3)"/><path d="M461.53,401.24h-1.71v-15h1.85v5.36a3.65,3.65,0,0,1,3-1.47,4.56,4.56,0,0,1,1.9.41,3.88,3.88,0,0,1,1.48,1.14,5.52,5.52,0,0,1,.91,1.77,7.3,7.3,0,0,1,.33,2.21,6.22,6.22,0,0,1-1.38,4.33,4.33,4.33,0,0,1-3.32,1.53,3.47,3.47,0,0,1-3-1.61v1.36Zm0-5.53a5.65,5.65,0,0,0,.53,2.83,2.64,2.64,0,0,0,4.45.38,4.78,4.78,0,0,0,.88-3.13,4.86,4.86,0,0,0-.85-3.15,2.58,2.58,0,0,0-2-1,2.66,2.66,0,0,0-2.09,1.05A4.62,4.62,0,0,0,461.51,395.71Z" transform="translate(25.4 22.3)"/><path d="M471.46,401.24v-15h1.85v15h-1.85Z" transform="translate(25.4 22.3)"/><path d="M483.62,397.73l1.91,0.24a4.65,4.65,0,0,1-1.67,2.59A5.66,5.66,0,0,1,477,400a5.75,5.75,0,0,1-1.4-4.13,6,6,0,0,1,1.42-4.27,4.79,4.79,0,0,1,3.67-1.52,4.66,4.66,0,0,1,3.57,1.49,5.91,5.91,0,0,1,1.38,4.18q0,0.16,0,.49h-8.12a4.19,4.19,0,0,0,1,2.75,3,3,0,0,0,2.28,1,2.82,2.82,0,0,0,1.73-.53A3.54,3.54,0,0,0,483.62,397.73Zm-6.06-3h6.08a3.69,3.69,0,0,0-.7-2.06,2.83,2.83,0,0,0-2.29-1.07,2.94,2.94,0,0,0-2.14.85A3.37,3.37,0,0,0,477.56,394.75Z" transform="translate(25.4 22.3)"/><path d="M495.69,401.24l-3.33-10.89h1.91l1.73,6.29,0.65,2.34,0.56-2.25,1.73-6.38h1.9l1.63,6.32,0.54,2.08,0.63-2.1,1.87-6.3h1.79l-3.4,10.89H502l-1.73-6.52-0.42-1.86-2.2,8.38h-1.93Z" transform="translate(25.4 22.3)"/><path d="M516,399.89a6.84,6.84,0,0,1-2,1.23,5.71,5.71,0,0,1-2,.36,4,4,0,0,1-2.76-.88,2.89,2.89,0,0,1-1-2.24,3,3,0,0,1,.36-1.46,3,3,0,0,1,1-1.06,4.48,4.48,0,0,1,1.33-.6,13.21,13.21,0,0,1,1.64-.28,16.88,16.88,0,0,0,3.29-.64c0-.25,0-0.41,0-0.48a2,2,0,0,0-.52-1.59,3.09,3.09,0,0,0-2.1-.62,3.26,3.26,0,0,0-1.92.46,2.79,2.79,0,0,0-.92,1.61l-1.8-.25a4.48,4.48,0,0,1,.81-1.87,3.55,3.55,0,0,1,1.63-1.1,7.26,7.26,0,0,1,2.47-.38,6.54,6.54,0,0,1,2.27.33,3,3,0,0,1,1.28.83,2.91,2.91,0,0,1,.57,1.26,10.55,10.55,0,0,1,.09,1.7v2.46a26.26,26.26,0,0,0,.12,3.25,4.12,4.12,0,0,0,.47,1.31h-1.93A3.91,3.91,0,0,1,516,399.89Zm-0.15-4.12a13.54,13.54,0,0,1-3,.7,7,7,0,0,0-1.61.37,1.6,1.6,0,0,0-.73.6,1.63,1.63,0,0,0,.3,2.11,2.41,2.41,0,0,0,1.64.49,3.81,3.81,0,0,0,1.9-.47,2.87,2.87,0,0,0,1.22-1.28,4.44,4.44,0,0,0,.3-1.85v-0.68Z" transform="translate(25.4 22.3)"/><path d="M524.56,399.59l0.27,1.63a6.85,6.85,0,0,1-1.39.16,3.17,3.17,0,0,1-1.56-.32,1.78,1.78,0,0,1-.78-0.84,6.62,6.62,0,0,1-.23-2.18v-6.26h-1.35v-1.44h1.35v-2.7l1.84-1.11v3.8h1.86v1.44H522.7v6.37a3.21,3.21,0,0,0,.1,1,0.76,0.76,0,0,0,.32.36,1.21,1.21,0,0,0,.63.13A6,6,0,0,0,524.56,399.59Z" transform="translate(25.4 22.3)"/><path d="M533.82,397.73l1.91,0.24a4.65,4.65,0,0,1-1.67,2.59,5.66,5.66,0,0,1-6.91-.55,5.75,5.75,0,0,1-1.4-4.13,6,6,0,0,1,1.42-4.27,4.79,4.79,0,0,1,3.67-1.52,4.66,4.66,0,0,1,3.57,1.49,5.91,5.91,0,0,1,1.38,4.18c0,0.11,0,.27,0,0.49h-8.12a4.19,4.19,0,0,0,1,2.75,3,3,0,0,0,2.28,1,2.82,2.82,0,0,0,1.73-.53A3.55,3.55,0,0,0,533.82,397.73Zm-6.06-3h6.08a3.69,3.69,0,0,0-.7-2.06,2.83,2.83,0,0,0-2.29-1.07,2.93,2.93,0,0,0-2.14.85A3.37,3.37,0,0,0,527.76,394.75Z" transform="translate(25.4 22.3)"/><path d="M538,401.24V390.35h1.66V392a4.5,4.5,0,0,1,1.17-1.53,2,2,0,0,1,1.18-.37,3.6,3.6,0,0,1,1.9.59l-0.64,1.71a2.63,2.63,0,0,0-1.35-.4,1.75,1.75,0,0,0-1.09.36,2,2,0,0,0-.69,1,7.19,7.19,0,0,0-.31,2.15v5.7H538Z" transform="translate(25.4 22.3)"/></g></svg>