<svg id="图层_1" data-name="图层 1" xmlns="http://www.w3.org/2000/svg" viewBox="0 0 1072.4 811.5"><defs><style>.cls-1{fill:#ccc;}.cls-2{fill:#ca2928;}.cls-3{fill:#aaaaa9;}.cls-4{isolation:isolate;}.cls-5{fill:#2b7aae;}.cls-6{fill:#329939;}.cls-7{fill:#ff7f0e;}.cls-8{fill:#8963a8;}.cls-9{fill:#d62728;}.cls-10{fill:#404040;}</style></defs><title>3 visible non visible-3 </title><rect class="cls-1" width="1072.4" height="811.5"/><path class="cls-2" d="M785.4,711.9a151,151,0,0,1-32.2-2.5,165.74,165.74,0,0,1-80.7-38.7c-27.3-23.9-45.5-53.5-53.3-89-12.1-55.1.3-104.6,36.6-147.7,23.9-28.4,54.8-46,90.9-54.3a161.08,161.08,0,0,1,44.3-3.8c33.6,1.8,64.1,12.5,91.3,32.4a165.7,165.7,0,0,1,49.9,58.2c0.6,1.1,1.4,2.1,1.4,3.5a5.07,5.07,0,0,1-2.7,2.5c-26.6,12.9-53.1,26.1-79.7,39.1-21.3,10.4-42.6,21-64,31.4a5.53,5.53,0,0,0-3.5,5.7c0.1,1.4,0,2.8.1,4.2q1.2,76.35,2.5,152.8C786.2,707.7,786.8,710,785.4,711.9Z" transform="translate(26.4 23.3)"/><path class="cls-3" d="M785.4,711.9v-5Q784,628,782.8,549.1a12.22,12.22,0,0,0-.1-2.7c-0.3-1.9.6-3,2.4-3.8,4.5-2.1,8.9-4.3,13.3-6.5L931,471c0.8-.4,1.6-0.7,2.4-1.1a103.5,103.5,0,0,1,8.7,20.6A168.19,168.19,0,0,1,787.9,711.9,7,7,0,0,1,785.4,711.9Z" transform="translate(26.4 23.3)"/><g class="cls-4"><path d="M687.06,492.25V445.57h30.82v5.51H693.11v14.46h21.44V471H693.11v21.21h-6Z" transform="translate(26.4 23.3)"/><path d="M722.93,475.34q0-9.39,5.11-13.92a15.2,15.2,0,0,1,10.41-3.76,14.68,14.68,0,0,1,11.16,4.57q4.33,4.57,4.33,12.63,0,6.53-1.92,10.27a13.72,13.72,0,0,1-5.58,5.81,16,16,0,0,1-8,2.07,14.71,14.71,0,0,1-11.23-4.55Q722.93,483.91,722.93,475.34Zm5.77,0q0,6.5,2.77,9.73a9.11,9.11,0,0,0,13.93,0q2.77-3.25,2.77-9.9,0-6.27-2.79-9.51a9.12,9.12,0,0,0-13.91,0Q728.7,468.85,728.7,475.34Z" transform="translate(26.4 23.3)"/><path d="M758.43,475.34q0-9.39,5.11-13.92a15.2,15.2,0,0,1,10.41-3.76,14.68,14.68,0,0,1,11.16,4.57q4.33,4.57,4.33,12.63,0,6.53-1.92,10.27a13.72,13.72,0,0,1-5.58,5.81,16,16,0,0,1-8,2.07,14.71,14.71,0,0,1-11.23-4.55Q758.43,483.91,758.43,475.34Zm5.77,0q0,6.5,2.77,9.73a9.11,9.11,0,0,0,13.93,0q2.77-3.25,2.77-9.9,0-6.27-2.79-9.51a9.12,9.12,0,0,0-13.91,0Q764.19,468.85,764.2,475.34Z" transform="translate(26.4 23.3)"/><path d="M817.49,492.25V488a10.24,10.24,0,0,1-9.26,5,12.79,12.79,0,0,1-7.28-2.23,14.57,14.57,0,0,1-5.14-6.23,21.92,21.92,0,0,1-1.82-9.19,24.53,24.53,0,0,1,1.65-9.19,13.27,13.27,0,0,1,5-6.32,13,13,0,0,1,7.39-2.2,10.84,10.84,0,0,1,5.33,1.29,11.22,11.22,0,0,1,3.8,3.36V445.57h5.58v46.68h-5.2Zm-17.73-16.88q0,6.5,2.68,9.71a8,8,0,0,0,6.33,3.22,7.87,7.87,0,0,0,6.25-3.07q2.57-3.07,2.57-9.38,0-6.94-2.62-10.19a8,8,0,0,0-6.45-3.25,7.71,7.71,0,0,0-6.25,3.12Q799.75,468.66,799.75,475.38Z" transform="translate(26.4 23.3)"/></g><g class="cls-4"><path d="M814.56,592.51q0-6,3.22-9.39a11,11,0,0,1,8.32-3.39,11.54,11.54,0,0,1,6,1.59,10.42,10.42,0,0,1,4.08,4.45,14.46,14.46,0,0,1,1.4,6.47,14.19,14.19,0,0,1-1.48,6.56,10.1,10.1,0,0,1-4.19,4.38,12,12,0,0,1-5.85,1.49A11.39,11.39,0,0,1,820,603a10.57,10.57,0,0,1-4.06-4.49A13.6,13.6,0,0,1,814.56,592.51Zm3.29,0a9.66,9.66,0,0,0,2.34,6.86,8.17,8.17,0,0,0,11.8,0q2.32-2.53,2.32-7.18a12.33,12.33,0,0,0-1-5.13,7.64,7.64,0,0,0-2.91-3.4,7.89,7.89,0,0,0-4.3-1.21,8.15,8.15,0,0,0-5.83,2.33Q817.85,587.12,817.85,592.55Z" transform="translate(26.4 23.3)"/><path d="M847.79,601.59l0.43,2.61a11,11,0,0,1-2.24.26,5.05,5.05,0,0,1-2.5-.51,2.85,2.85,0,0,1-1.25-1.34,10.58,10.58,0,0,1-.36-3.49v-10H839.7v-2.3h2.17v-4.32l2.94-1.77v6.1h3v2.3h-3v10.21a5.14,5.14,0,0,0,.16,1.63,1.23,1.23,0,0,0,.51.58,2,2,0,0,0,1,.21A9.69,9.69,0,0,0,847.79,601.59Z" transform="translate(26.4 23.3)"/><path d="M850.68,604.24V580.15h3v8.64a6.61,6.61,0,0,1,5.23-2.4,7,7,0,0,1,3.37.76,4.49,4.49,0,0,1,2,2.11,9.75,9.75,0,0,1,.62,3.91v11.06h-3V593.18a4.57,4.57,0,0,0-1-3.23,3.58,3.58,0,0,0-2.72-1,4.8,4.8,0,0,0-2.47.68,3.85,3.85,0,0,0-1.65,1.85,8.51,8.51,0,0,0-.49,3.22v9.55h-3Z" transform="translate(26.4 23.3)"/><path d="M881.35,598.62L884.4,599a7.46,7.46,0,0,1-2.68,4.16,9.08,9.08,0,0,1-11.07-.88,9.22,9.22,0,0,1-2.24-6.62,9.64,9.64,0,0,1,2.27-6.84,7.68,7.68,0,0,1,5.88-2.43,7.47,7.47,0,0,1,5.72,2.38,9.47,9.47,0,0,1,2.22,6.71q0,0.26,0,.79h-13a6.7,6.7,0,0,0,1.63,4.4,4.84,4.84,0,0,0,3.65,1.53,4.53,4.53,0,0,0,2.78-.85A5.67,5.67,0,0,0,881.35,598.62Zm-9.71-4.78h9.75a5.92,5.92,0,0,0-1.12-3.3,4.53,4.53,0,0,0-3.67-1.71,4.69,4.69,0,0,0-3.43,1.36A5.4,5.4,0,0,0,871.63,593.84Z" transform="translate(26.4 23.3)"/><path d="M888.09,604.24V586.79h2.66v2.65a7.23,7.23,0,0,1,1.88-2.45,3.28,3.28,0,0,1,1.9-.59,5.78,5.78,0,0,1,3,1l-1,2.75a4.23,4.23,0,0,0-2.17-.64,2.82,2.82,0,0,0-1.74.58,3.16,3.16,0,0,0-1.1,1.62,11.51,11.51,0,0,0-.49,3.45v9.14h-3Z" transform="translate(26.4 23.3)"/><path d="M898.14,599l2.93-.46a4.08,4.08,0,0,0,1.37,2.7,4.78,4.78,0,0,0,3.15.94,4.62,4.62,0,0,0,3-.83,2.48,2.48,0,0,0,1-1.95,1.8,1.8,0,0,0-.87-1.58,12.78,12.78,0,0,0-3-1,27.52,27.52,0,0,1-4.51-1.42,4.3,4.3,0,0,1-2.55-4,4.5,4.5,0,0,1,.53-2.16,4.8,4.8,0,0,1,1.46-1.65,6.11,6.11,0,0,1,1.88-.86,9,9,0,0,1,2.56-.35,10.1,10.1,0,0,1,3.61.59,4.91,4.91,0,0,1,2.29,1.6,6.25,6.25,0,0,1,1,2.7l-2.89.39a3.16,3.16,0,0,0-1.14-2.1,4.18,4.18,0,0,0-2.67-.76,4.83,4.83,0,0,0-2.91.67,2,2,0,0,0-.87,1.58,1.63,1.63,0,0,0,.36,1,2.6,2.6,0,0,0,1.13.79q0.44,0.17,2.61.76A36.47,36.47,0,0,1,910,595a4.44,4.44,0,0,1,1.95,1.55,4.34,4.34,0,0,1,.71,2.53,5,5,0,0,1-.86,2.79,5.58,5.58,0,0,1-2.49,2,9.06,9.06,0,0,1-3.68.71,8.19,8.19,0,0,1-5.18-1.41A6.58,6.58,0,0,1,898.14,599Z" transform="translate(26.4 23.3)"/></g><g id="main"><path class="cls-5" d="M586.2,385.1c-17.2,64.6-84,101.9-148.9,83.4S333.7,382.6,350.9,318c4.2-16,108.2,45.7,117.7,33.6C483,333.2,406,243.4,428,236.1a122,122,0,0,1,71.9-1.4C564.8,253.1,603.4,320.5,586.2,385.1Z" transform="translate(26.4 23.3)"/></g><g class="cls-4"><path d="M346.67,301.26l-5-12.88h1.85l3.35,9.36q0.4,1.13.68,2.11,0.3-1.05.69-2.11l3.48-9.36h1.74l-5,12.88h-1.75Z" transform="translate(26.4 23.3)"/><path d="M354.47,290.19v-1.82h1.58v1.82h-1.58Zm0,11.07v-9.33h1.58v9.33h-1.58Z" transform="translate(26.4 23.3)"/><path d="M357.83,298.47l1.56-.25a2.19,2.19,0,0,0,.73,1.44,2.56,2.56,0,0,0,1.68.5,2.47,2.47,0,0,0,1.62-.44,1.33,1.33,0,0,0,.53-1,1,1,0,0,0-.47-0.84,6.86,6.86,0,0,0-1.62-.54,14.77,14.77,0,0,1-2.41-.76,2.31,2.31,0,0,1-1.37-2.14,2.41,2.41,0,0,1,.29-1.16,2.57,2.57,0,0,1,.78-0.88,3.26,3.26,0,0,1,1-.46,4.79,4.79,0,0,1,1.37-.19,5.4,5.4,0,0,1,1.93.32,2.62,2.62,0,0,1,1.23.86,3.34,3.34,0,0,1,.54,1.45l-1.55.21a1.69,1.69,0,0,0-.61-1.12,2.23,2.23,0,0,0-1.43-.4,2.59,2.59,0,0,0-1.56.36,1,1,0,0,0-.47.84,0.87,0.87,0,0,0,.19.55,1.4,1.4,0,0,0,.61.42q0.24,0.09,1.4.4a19.43,19.43,0,0,1,2.34.73,2.38,2.38,0,0,1,1,.83,2.32,2.32,0,0,1,.38,1.35,2.66,2.66,0,0,1-.46,1.49,3,3,0,0,1-1.33,1.08,4.83,4.83,0,0,1-2,.38,4.39,4.39,0,0,1-2.77-.76A3.52,3.52,0,0,1,357.83,298.47Z" transform="translate(26.4 23.3)"/><path d="M367.47,290.19v-1.82h1.58v1.82h-1.58Zm0,11.07v-9.33h1.58v9.33h-1.58Z" transform="translate(26.4 23.3)"/><path d="M372.92,301.26h-1.47V288.37H373V293a3.13,3.13,0,0,1,2.56-1.26,3.92,3.92,0,0,1,1.63.35,3.34,3.34,0,0,1,1.27,1,4.73,4.73,0,0,1,.78,1.52,6.25,6.25,0,0,1,.28,1.9,5.33,5.33,0,0,1-1.19,3.71,3.71,3.71,0,0,1-2.85,1.31,3,3,0,0,1-2.59-1.38v1.17Zm0-4.74a4.84,4.84,0,0,0,.46,2.43,2.26,2.26,0,0,0,3.81.32,4.1,4.1,0,0,0,.76-2.69,4.16,4.16,0,0,0-.73-2.7,2.21,2.21,0,0,0-1.75-.87,2.28,2.28,0,0,0-1.79.9A4,4,0,0,0,372.9,296.52Z" transform="translate(26.4 23.3)"/><path d="M381.44,301.26V288.37H383v12.88h-1.58Z" transform="translate(26.4 23.3)"/><path d="M391.86,298.25l1.63,0.2a4,4,0,0,1-1.43,2.22,4.85,4.85,0,0,1-5.92-.47,4.93,4.93,0,0,1-1.2-3.54,5.16,5.16,0,0,1,1.21-3.66,4.11,4.11,0,0,1,3.15-1.3,4,4,0,0,1,3.06,1.27,5.06,5.06,0,0,1,1.19,3.59q0,0.14,0,.42h-7a3.59,3.59,0,0,0,.87,2.36,2.59,2.59,0,0,0,2,.82,2.42,2.42,0,0,0,1.49-.46A3,3,0,0,0,391.86,298.25Zm-5.19-2.56h5.21a3.16,3.16,0,0,0-.6-1.77,2.42,2.42,0,0,0-2-.91,2.51,2.51,0,0,0-1.83.73A2.89,2.89,0,0,0,386.66,295.69Z" transform="translate(26.4 23.3)"/><path d="M402.2,301.26l-2.86-9.33H401l1.49,5.39,0.55,2,0.48-1.92,1.49-5.47h1.63l1.4,5.41,0.47,1.78,0.54-1.8,1.6-5.4h1.54l-2.92,9.33h-1.64l-1.49-5.59-0.36-1.59-1.89,7.18H402.2Z" transform="translate(26.4 23.3)"/><path d="M419.57,300.11a5.89,5.89,0,0,1-1.69,1.05,4.89,4.89,0,0,1-1.74.31,3.39,3.39,0,0,1-2.36-.75,2.48,2.48,0,0,1-.83-1.92,2.55,2.55,0,0,1,.31-1.25,2.58,2.58,0,0,1,.82-0.91,3.84,3.84,0,0,1,1.14-.52,11.3,11.3,0,0,1,1.41-.24,14.46,14.46,0,0,0,2.82-.54q0-.33,0-0.41a1.75,1.75,0,0,0-.45-1.36,2.65,2.65,0,0,0-1.8-.54,2.79,2.79,0,0,0-1.65.39,2.39,2.39,0,0,0-.79,1.38l-1.55-.21a3.84,3.84,0,0,1,.69-1.6,3,3,0,0,1,1.4-.94,6.21,6.21,0,0,1,2.12-.33,5.61,5.61,0,0,1,1.94.28,2.57,2.57,0,0,1,1.1.71,2.5,2.5,0,0,1,.49,1.08,8.91,8.91,0,0,1,.08,1.46v2.11a22.37,22.37,0,0,0,.1,2.79,3.51,3.51,0,0,0,.4,1.12h-1.65A3.35,3.35,0,0,1,419.57,300.11Zm-0.13-3.53a11.61,11.61,0,0,1-2.58.6,6,6,0,0,0-1.38.32,1.38,1.38,0,0,0-.62.51,1.4,1.4,0,0,0,.26,1.81,2.06,2.06,0,0,0,1.4.42,3.26,3.26,0,0,0,1.63-.4,2.46,2.46,0,0,0,1-1.09,3.82,3.82,0,0,0,.25-1.58v-0.58Z" transform="translate(26.4 23.3)"/><path d="M426.94,299.84l0.23,1.4a5.87,5.87,0,0,1-1.2.14,2.71,2.71,0,0,1-1.34-.27,1.52,1.52,0,0,1-.67-0.72,5.67,5.67,0,0,1-.19-1.87v-5.37h-1.16v-1.23h1.16v-2.31l1.57-.95v3.26h1.59v1.23h-1.59v5.46a2.76,2.76,0,0,0,.08.87,0.66,0.66,0,0,0,.27.31,1.05,1.05,0,0,0,.54.11A5.15,5.15,0,0,0,426.94,299.84Z" transform="translate(26.4 23.3)"/><path d="M434.88,298.25l1.63,0.2a4,4,0,0,1-1.43,2.22,4.85,4.85,0,0,1-5.92-.47,4.93,4.93,0,0,1-1.2-3.54,5.16,5.16,0,0,1,1.21-3.66,4.11,4.11,0,0,1,3.15-1.3,4,4,0,0,1,3.06,1.27,5.06,5.06,0,0,1,1.19,3.59q0,0.14,0,.42h-7a3.59,3.59,0,0,0,.87,2.36,2.59,2.59,0,0,0,2,.82,2.42,2.42,0,0,0,1.49-.46A3,3,0,0,0,434.88,298.25Zm-5.19-2.56h5.21a3.16,3.16,0,0,0-.6-1.77,2.42,2.42,0,0,0-2-.91,2.51,2.51,0,0,0-1.83.73A2.89,2.89,0,0,0,429.69,295.69Z" transform="translate(26.4 23.3)"/><path d="M438.48,301.26v-9.33h1.42v1.42a3.86,3.86,0,0,1,1-1.31,1.76,1.76,0,0,1,1-.32,3.09,3.09,0,0,1,1.63.51L443,293.69a2.26,2.26,0,0,0-1.16-.34,1.51,1.51,0,0,0-.93.31,1.69,1.69,0,0,0-.59.87,6.16,6.16,0,0,0-.26,1.85v4.89h-1.58Z" transform="translate(26.4 23.3)"/></g><g class="cls-4"><path d="M411.55,400.24v-15h2v15h-2Z" transform="translate(26.4 23.3)"/><path d="M416.81,400.24V389.35h1.66v1.55a3.92,3.92,0,0,1,3.47-1.79,4.56,4.56,0,0,1,1.81.35,2.85,2.85,0,0,1,1.24.93,3.56,3.56,0,0,1,.57,1.36,10.58,10.58,0,0,1,.1,1.79v6.7h-1.85v-6.62a5,5,0,0,0-.22-1.69,1.78,1.78,0,0,0-.76-0.89,2.43,2.43,0,0,0-1.29-.33,3,3,0,0,0-2,.75,3.69,3.69,0,0,0-.86,2.84v5.95h-1.85Z" transform="translate(26.4 23.3)"/><path d="M431.52,400.24l-4.14-10.89h1.95l2.34,6.52q0.38,1.06.7,2.19,0.25-.86.69-2.07l2.42-6.64h1.9l-4.12,10.89h-1.72Z" transform="translate(26.4 23.3)"/><path d="M439,387.33v-2.12h1.85v2.12H439Zm0,12.91V389.35h1.85v10.89H439Z" transform="translate(26.4 23.3)"/><path d="M442.92,397l1.83-.29a2.55,2.55,0,0,0,.86,1.68,3,3,0,0,0,2,.58,2.89,2.89,0,0,0,1.89-.52,1.55,1.55,0,0,0,.62-1.21,1.12,1.12,0,0,0-.54-1,8,8,0,0,0-1.89-.63,17.29,17.29,0,0,1-2.81-.89,2.69,2.69,0,0,1-1.59-2.5,2.8,2.8,0,0,1,.33-1.35,3,3,0,0,1,.91-1,3.79,3.79,0,0,1,1.17-.54,5.57,5.57,0,0,1,1.59-.22,6.31,6.31,0,0,1,2.25.37,3.06,3.06,0,0,1,1.43,1,3.9,3.9,0,0,1,.64,1.69l-1.8.25a2,2,0,0,0-.71-1.31,2.61,2.61,0,0,0-1.67-.47,3,3,0,0,0-1.81.42,1.22,1.22,0,0,0-.54,1,1,1,0,0,0,.23.65,1.63,1.63,0,0,0,.71.49q0.28,0.1,1.63.47a22.63,22.63,0,0,1,2.73.86,2.77,2.77,0,0,1,1.21,1A2.7,2.7,0,0,1,452,397a3.1,3.1,0,0,1-.54,1.74,3.48,3.48,0,0,1-1.55,1.26,5.65,5.65,0,0,1-2.3.45,5.12,5.12,0,0,1-3.23-.88A4.1,4.1,0,0,1,442.92,397Z" transform="translate(26.4 23.3)"/><path d="M454.17,387.33v-2.12H456v2.12h-1.85Zm0,12.91V389.35H456v10.89h-1.85Z" transform="translate(26.4 23.3)"/><path d="M460.53,400.24h-1.71v-15h1.85v5.36a3.65,3.65,0,0,1,3-1.47,4.56,4.56,0,0,1,1.9.41,3.88,3.88,0,0,1,1.48,1.14,5.52,5.52,0,0,1,.91,1.77,7.3,7.3,0,0,1,.33,2.21,6.22,6.22,0,0,1-1.38,4.33,4.33,4.33,0,0,1-3.32,1.53,3.47,3.47,0,0,1-3-1.61v1.36Zm0-5.53a5.65,5.65,0,0,0,.53,2.83,2.64,2.64,0,0,0,4.45.38,4.78,4.78,0,0,0,.88-3.13,4.86,4.86,0,0,0-.85-3.15,2.58,2.58,0,0,0-2-1,2.66,2.66,0,0,0-2.09,1.05A4.62,4.62,0,0,0,460.51,394.71Z" transform="translate(26.4 23.3)"/><path d="M470.46,400.24v-15h1.85v15h-1.85Z" transform="translate(26.4 23.3)"/><path d="M482.62,396.73l1.91,0.24a4.65,4.65,0,0,1-1.67,2.59A5.66,5.66,0,0,1,476,399a5.75,5.75,0,0,1-1.4-4.13,6,6,0,0,1,1.42-4.27,4.79,4.79,0,0,1,3.67-1.52,4.66,4.66,0,0,1,3.57,1.49,5.91,5.91,0,0,1,1.38,4.18q0,0.16,0,.49h-8.12a4.19,4.19,0,0,0,1,2.75,3,3,0,0,0,2.28,1,2.82,2.82,0,0,0,1.73-.53A3.54,3.54,0,0,0,482.62,396.73Zm-6.06-3h6.08a3.69,3.69,0,0,0-.7-2.06,2.83,2.83,0,0,0-2.29-1.07,2.94,2.94,0,0,0-2.14.85A3.37,3.37,0,0,0,476.56,393.75Z" transform="translate(26.4 23.3)"/><path d="M494.69,400.24l-3.33-10.89h1.91l1.73,6.29,0.65,2.34,0.56-2.25,1.73-6.38h1.9l1.63,6.32,0.54,2.08,0.63-2.1,1.87-6.3h1.79l-3.4,10.89H501l-1.73-6.52-0.42-1.86-2.2,8.38h-1.93Z" transform="translate(26.4 23.3)"/><path d="M515,398.89a6.84,6.84,0,0,1-2,1.23,5.71,5.71,0,0,1-2,.36,4,4,0,0,1-2.76-.88,2.89,2.89,0,0,1-1-2.24,3,3,0,0,1,.36-1.46,3,3,0,0,1,1-1.06,4.48,4.48,0,0,1,1.33-.6,13.18,13.18,0,0,1,1.64-.28,16.88,16.88,0,0,0,3.29-.64c0-.25,0-0.41,0-0.48a2,2,0,0,0-.52-1.59,3.09,3.09,0,0,0-2.1-.62,3.26,3.26,0,0,0-1.92.46,2.79,2.79,0,0,0-.92,1.61l-1.8-.25a4.48,4.48,0,0,1,.81-1.87,3.55,3.55,0,0,1,1.63-1.1,7.26,7.26,0,0,1,2.47-.38,6.54,6.54,0,0,1,2.27.33,3,3,0,0,1,1.28.83,2.91,2.91,0,0,1,.57,1.26,10.55,10.55,0,0,1,.09,1.7v2.46a26.26,26.26,0,0,0,.12,3.25,4.12,4.12,0,0,0,.47,1.31h-1.93A3.91,3.91,0,0,1,515,398.89Zm-0.15-4.12a13.54,13.54,0,0,1-3,.7,7,7,0,0,0-1.61.37,1.6,1.6,0,0,0-.73.6,1.63,1.63,0,0,0,.3,2.11,2.4,2.4,0,0,0,1.64.49,3.81,3.81,0,0,0,1.9-.47,2.87,2.87,0,0,0,1.22-1.28,4.44,4.44,0,0,0,.3-1.85v-0.68Z" transform="translate(26.4 23.3)"/><path d="M523.56,398.59l0.27,1.63a6.85,6.85,0,0,1-1.39.16,3.17,3.17,0,0,1-1.56-.32,1.78,1.78,0,0,1-.78-0.84,6.62,6.62,0,0,1-.23-2.18v-6.26h-1.35v-1.44h1.35v-2.7l1.84-1.11v3.8h1.86v1.44H521.7v6.37a3.21,3.21,0,0,0,.1,1,0.76,0.76,0,0,0,.32.36,1.21,1.21,0,0,0,.63.13A6,6,0,0,0,523.56,398.59Z" transform="translate(26.4 23.3)"/><path d="M532.82,396.73l1.91,0.24a4.65,4.65,0,0,1-1.67,2.59,5.66,5.66,0,0,1-6.91-.55,5.75,5.75,0,0,1-1.4-4.13,6,6,0,0,1,1.42-4.27,4.79,4.79,0,0,1,3.67-1.52,4.66,4.66,0,0,1,3.57,1.49,5.91,5.91,0,0,1,1.38,4.18c0,0.11,0,.27,0,0.49h-8.12a4.19,4.19,0,0,0,1,2.75,3,3,0,0,0,2.28,1,2.82,2.82,0,0,0,1.73-.53A3.55,3.55,0,0,0,532.82,396.73Zm-6.06-3h6.08a3.69,3.69,0,0,0-.7-2.06,2.83,2.83,0,0,0-2.29-1.07,2.93,2.93,0,0,0-2.14.85A3.37,3.37,0,0,0,526.76,393.75Z" transform="translate(26.4 23.3)"/><path d="M537,400.24V389.35h1.66V391a4.5,4.5,0,0,1,1.17-1.53,2,2,0,0,1,1.18-.37,3.6,3.6,0,0,1,1.9.59l-0.64,1.71a2.63,2.63,0,0,0-1.35-.4,1.75,1.75,0,0,0-1.09.36,2,2,0,0,0-.69,1,7.19,7.19,0,0,0-.31,2.15v5.7H537Z" transform="translate(26.4 23.3)"/></g><g class="cls-4"><path d="M55.27,219.87l1.8-.16a4.25,4.25,0,0,0,.6,1.85,3.28,3.28,0,0,0,1.45,1.17,5.33,5.33,0,0,0,2.22.45,5.14,5.14,0,0,0,1.93-.34,2.69,2.69,0,0,0,1.25-.93,2.21,2.21,0,0,0,.41-1.29,2,2,0,0,0-.39-1.24,2.92,2.92,0,0,0-1.3-.89,24.68,24.68,0,0,0-2.57-.73,12.79,12.79,0,0,1-2.79-.94,4,4,0,0,1-1.54-1.4,3.53,3.53,0,0,1-.51-1.87,3.93,3.93,0,0,1,.62-2.13,3.88,3.88,0,0,1,1.81-1.5,6.65,6.65,0,0,1,2.65-.51,7,7,0,0,1,2.83.54,4.12,4.12,0,0,1,1.89,1.58,4.68,4.68,0,0,1,.71,2.37l-1.83.14a3.12,3.12,0,0,0-1-2.15,3.79,3.79,0,0,0-2.52-.73,3.93,3.93,0,0,0-2.53.66,2,2,0,0,0-.79,1.59,1.74,1.74,0,0,0,.56,1.33,7.43,7.43,0,0,0,2.88,1.07,18.56,18.56,0,0,1,3.2,1,4.42,4.42,0,0,1,1.86,1.53,3.84,3.84,0,0,1,.6,2.14,4.2,4.2,0,0,1-.66,2.26,4.4,4.4,0,0,1-1.9,1.65,6.41,6.41,0,0,1-2.79.59,8,8,0,0,1-3.29-.59,4.65,4.65,0,0,1-2.08-1.79A5.22,5.22,0,0,1,55.27,219.87Z" transform="translate(26.4 23.3)"/><path d="M69.16,224.7v-15h1.78v5.39a3.9,3.9,0,0,1,3.14-1.5,4.1,4.1,0,0,1,2,.48,2.76,2.76,0,0,1,1.23,1.32,6.29,6.29,0,0,1,.37,2.44v6.9H75.92v-6.9a2.93,2.93,0,0,0-.58-2,2.1,2.1,0,0,0-1.63-.63,2.8,2.8,0,0,0-1.48.43,2.38,2.38,0,0,0-1,1.15,5.49,5.49,0,0,0-.3,2v6H69.16Z" transform="translate(26.4 23.3)"/><path d="M79.73,219.25a5.73,5.73,0,0,1,1.62-4.48,4.76,4.76,0,0,1,3.29-1.21A4.61,4.61,0,0,1,88.17,215a5.73,5.73,0,0,1,1.37,4.07,7.45,7.45,0,0,1-.61,3.31,4.39,4.39,0,0,1-1.77,1.87,5,5,0,0,1-2.53.67,4.62,4.62,0,0,1-3.56-1.47A6,6,0,0,1,79.73,219.25Zm1.82,0a4.76,4.76,0,0,0,.88,3.13,2.85,2.85,0,0,0,4.41,0,4.88,4.88,0,0,0,.88-3.19,4.62,4.62,0,0,0-.88-3.06,2.85,2.85,0,0,0-4.4,0A4.74,4.74,0,0,0,81.56,219.25Z" transform="translate(26.4 23.3)"/><path d="M93.56,224.7l-3.21-10.89h1.83l1.67,6.29,0.62,2.34L95,220.18l1.67-6.38h1.82l1.57,6.32,0.52,2.08,0.6-2.1,1.79-6.3h1.73l-3.27,10.89H99.6l-1.67-6.52-0.4-1.86-2.12,8.38H93.56Z" transform="translate(26.4 23.3)"/><path d="M113.38,221.19l1.83,0.24a4.94,4.94,0,0,1-8.25,2,5.89,5.89,0,0,1-1.35-4.13,6.17,6.17,0,0,1,1.36-4.27,4.52,4.52,0,0,1,3.53-1.52,4.4,4.4,0,0,1,3.43,1.49,6.06,6.06,0,0,1,1.33,4.18q0,0.16,0,.49h-7.81a4.28,4.28,0,0,0,1,2.75,2.85,2.85,0,0,0,2.19,1,2.65,2.65,0,0,0,1.67-.53A3.55,3.55,0,0,0,113.38,221.19Zm-5.83-3h5.85a3.78,3.78,0,0,0-.67-2.06,2.68,2.68,0,0,0-2.2-1.07,2.76,2.76,0,0,0-2.06.85A3.43,3.43,0,0,0,107.55,218.21Z" transform="translate(26.4 23.3)"/><path d="M117.42,224.7V213.81H119v1.65a4.48,4.48,0,0,1,1.13-1.53,1.92,1.92,0,0,1,1.14-.37,3.37,3.37,0,0,1,1.82.59l-0.61,1.71a2.47,2.47,0,0,0-1.3-.4,1.65,1.65,0,0,0-1,.36,2,2,0,0,0-.66,1,7.45,7.45,0,0,0-.3,2.15v5.7h-1.77Z" transform="translate(26.4 23.3)"/><path d="M124.18,211.79v-2.12H126v2.12h-1.77Zm0,12.91V213.81H126V224.7h-1.77Z" transform="translate(26.4 23.3)"/><path d="M128.65,224.7V213.81h1.6v1.55a3.73,3.73,0,0,1,3.33-1.79,4.24,4.24,0,0,1,1.74.35,2.76,2.76,0,0,1,1.19.93,3.63,3.63,0,0,1,.55,1.36,11,11,0,0,1,.1,1.79v6.7h-1.77v-6.62a5.15,5.15,0,0,0-.21-1.69,1.76,1.76,0,0,0-.73-0.89,2.27,2.27,0,0,0-1.24-.33,2.81,2.81,0,0,0-2,.75,3.79,3.79,0,0,0-.82,2.84v5.95h-1.78Z" transform="translate(26.4 23.3)"/><path d="M139.56,225.6l1.73,0.27a1.73,1.73,0,0,0,.6,1.21,2.87,2.87,0,0,0,1.8.51,3.08,3.08,0,0,0,1.9-.51,2.53,2.53,0,0,0,.91-1.44,12.26,12.26,0,0,0,.13-2.37,3.6,3.6,0,0,1-2.9,1.43,3.9,3.9,0,0,1-3.34-1.62,6.41,6.41,0,0,1-1.18-3.89,7.48,7.48,0,0,1,.54-2.88,4.48,4.48,0,0,1,1.57-2,4.13,4.13,0,0,1,2.42-.72,3.71,3.71,0,0,1,3.06,1.56v-1.31h1.64v9.41a9.25,9.25,0,0,1-.5,3.6,3.73,3.73,0,0,1-1.58,1.68,5.3,5.3,0,0,1-2.66.62,4.88,4.88,0,0,1-3-.88A3,3,0,0,1,139.56,225.6Zm1.47-6.54a4.86,4.86,0,0,0,.82,3.13,2.63,2.63,0,0,0,4.1,0,4.7,4.7,0,0,0,.83-3.07,4.59,4.59,0,0,0-.85-3,2.6,2.6,0,0,0-2.06-1,2.53,2.53,0,0,0-2,1A4.57,4.57,0,0,0,141,219.06Z" transform="translate(26.4 23.3)"/></g><g class="cls-4"><path d="M295.27,208.2v-15h10.14v1.77h-8.15v4.65h7.05v1.77h-7.05v6.83h-2Z" transform="translate(26.4 23.3)"/><path d="M307.72,208.2v-15h1.85v15h-1.85Z" transform="translate(26.4 23.3)"/><path d="M319.57,208.2v-1.6a4,4,0,0,1-3.46,1.85,4.4,4.4,0,0,1-1.8-.37,3,3,0,0,1-1.24-.93,3.48,3.48,0,0,1-.57-1.37,9.37,9.37,0,0,1-.11-1.72v-6.75h1.85v6a10.75,10.75,0,0,0,.11,1.95,1.92,1.92,0,0,0,.74,1.14,2.28,2.28,0,0,0,1.39.42,3,3,0,0,0,1.56-.42,2.37,2.37,0,0,0,1-1.16,5.81,5.81,0,0,0,.3-2.13v-5.83h1.85V208.2h-1.65Z" transform="translate(26.4 23.3)"/><path d="M323.37,204.95l1.83-.29a2.55,2.55,0,0,0,.86,1.68,3,3,0,0,0,2,.58,2.89,2.89,0,0,0,1.89-.52,1.55,1.55,0,0,0,.62-1.21,1.12,1.12,0,0,0-.54-1,8,8,0,0,0-1.89-.63,17.29,17.29,0,0,1-2.81-.89,2.69,2.69,0,0,1-1.59-2.5,2.8,2.8,0,0,1,.33-1.35,3,3,0,0,1,.91-1,3.79,3.79,0,0,1,1.17-.54,5.57,5.57,0,0,1,1.59-.22,6.31,6.31,0,0,1,2.25.37,3.06,3.06,0,0,1,1.43,1,3.9,3.9,0,0,1,.64,1.69l-1.8.25a2,2,0,0,0-.71-1.31,2.61,2.61,0,0,0-1.67-.47A3,3,0,0,0,326,199a1.22,1.22,0,0,0-.54,1,1,1,0,0,0,.23.65,1.63,1.63,0,0,0,.71.49q0.28,0.1,1.63.47a22.63,22.63,0,0,1,2.73.86,2.77,2.77,0,0,1,1.21,1,2.7,2.7,0,0,1,.44,1.58,3.1,3.1,0,0,1-.54,1.74,3.48,3.48,0,0,1-1.55,1.26,5.65,5.65,0,0,1-2.3.45,5.12,5.12,0,0,1-3.23-.88A4.1,4.1,0,0,1,323.37,204.95Z" transform="translate(26.4 23.3)"/><path d="M334.61,208.2v-15h1.85v5.39a4.12,4.12,0,0,1,3.26-1.5,4.4,4.4,0,0,1,2.1.48,2.8,2.8,0,0,1,1.28,1.32,6.07,6.07,0,0,1,.38,2.44v6.9h-1.85v-6.9a2.85,2.85,0,0,0-.6-2,2.23,2.23,0,0,0-1.7-.63,3,3,0,0,0-1.54.43,2.41,2.41,0,0,0-1,1.15,5.3,5.3,0,0,0-.31,2v6h-1.85Z" transform="translate(26.4 23.3)"/><path d="M346.3,195.29v-2.12h1.85v2.12H346.3Zm0,12.91V197.31h1.85V208.2H346.3Z" transform="translate(26.4 23.3)"/><path d="M351,208.2V197.31h1.66v1.55a3.92,3.92,0,0,1,3.47-1.79,4.56,4.56,0,0,1,1.81.35,2.85,2.85,0,0,1,1.24.93,3.56,3.56,0,0,1,.57,1.36,10.58,10.58,0,0,1,.1,1.79v6.7H358v-6.62a5,5,0,0,0-.22-1.69A1.78,1.78,0,0,0,357,199a2.43,2.43,0,0,0-1.29-.33,3,3,0,0,0-2,.75,3.69,3.69,0,0,0-.86,2.84v5.95H351Z" transform="translate(26.4 23.3)"/><path d="M362.29,209.1l1.79,0.27a1.71,1.71,0,0,0,.63,1.21,3.07,3.07,0,0,0,1.88.51,3.3,3.3,0,0,0,2-.51,2.52,2.52,0,0,0,.94-1.44,11.79,11.79,0,0,0,.13-2.37,3.79,3.79,0,0,1-3,1.43,4.11,4.11,0,0,1-3.48-1.62,6.24,6.24,0,0,1-1.23-3.89,7.24,7.24,0,0,1,.56-2.88,4.51,4.51,0,0,1,1.64-2,4.42,4.42,0,0,1,2.52-.72,3.9,3.9,0,0,1,3.18,1.56v-1.31h1.7v9.41a8.94,8.94,0,0,1-.52,3.6,3.8,3.8,0,0,1-1.64,1.68,5.69,5.69,0,0,1-2.76.62,5.21,5.21,0,0,1-3.15-.88A3,3,0,0,1,362.29,209.1Zm1.53-6.54a4.73,4.73,0,0,0,.85,3.13,2.7,2.7,0,0,0,2.13,1,2.73,2.73,0,0,0,2.13-1,4.57,4.57,0,0,0,.86-3.07,4.47,4.47,0,0,0-.89-3,2.74,2.74,0,0,0-2.14-1,2.66,2.66,0,0,0-2.09,1A4.44,4.44,0,0,0,363.82,202.56Z" transform="translate(26.4 23.3)"/><path d="M383.83,208.2V194.94h-5v-1.77h11.92v1.77h-5V208.2h-2Z" transform="translate(26.4 23.3)"/><path d="M389.58,202.75a5.61,5.61,0,0,1,1.68-4.48,5.07,5.07,0,0,1,3.42-1.21,4.88,4.88,0,0,1,3.67,1.47,5.6,5.6,0,0,1,1.43,4.07,7.21,7.21,0,0,1-.63,3.31,4.47,4.47,0,0,1-1.84,1.87,5.35,5.35,0,0,1-2.63.67A4.89,4.89,0,0,1,391,207,5.85,5.85,0,0,1,389.58,202.75Zm1.9,0a4.64,4.64,0,0,0,.91,3.13,3,3,0,0,0,4.58,0,4.75,4.75,0,0,0,.91-3.19,4.5,4.5,0,0,0-.92-3.06,3,3,0,0,0-4.58,0A4.62,4.62,0,0,0,391.48,202.75Z" transform="translate(26.4 23.3)"/><path d="M402,195.29v-2.12h1.85v2.12H402Zm0,12.91V197.31h1.85V208.2H402Z" transform="translate(26.4 23.3)"/><path d="M406.57,208.2v-15h1.85v15h-1.85Z" transform="translate(26.4 23.3)"/><path d="M418.73,204.69l1.91,0.24a4.65,4.65,0,0,1-1.67,2.59,5.66,5.66,0,0,1-6.91-.55,5.75,5.75,0,0,1-1.4-4.13,6,6,0,0,1,1.42-4.27,4.79,4.79,0,0,1,3.67-1.52,4.66,4.66,0,0,1,3.57,1.49,5.91,5.91,0,0,1,1.38,4.18q0,0.16,0,.49h-8.12a4.19,4.19,0,0,0,1,2.75,3,3,0,0,0,2.28,1,2.82,2.82,0,0,0,1.73-.53A3.54,3.54,0,0,0,418.73,204.69Zm-6.06-3h6.08a3.69,3.69,0,0,0-.7-2.06,2.83,2.83,0,0,0-2.29-1.07,2.94,2.94,0,0,0-2.14.85A3.37,3.37,0,0,0,412.67,201.71Z" transform="translate(26.4 23.3)"/><path d="M427,206.55l0.27,1.63a6.85,6.85,0,0,1-1.39.16,3.17,3.17,0,0,1-1.56-.32,1.78,1.78,0,0,1-.78-0.84,6.62,6.62,0,0,1-.23-2.18v-6.26h-1.35v-1.44h1.35v-2.7l1.84-1.11v3.8H427v1.44h-1.86v6.37a3.22,3.22,0,0,0,.1,1,0.76,0.76,0,0,0,.32.36,1.22,1.22,0,0,0,.63.13A6,6,0,0,0,427,206.55Z" transform="translate(26.4 23.3)"/></g><g class="cls-4"><path d="M315.71,117l2,0.5a6.7,6.7,0,0,1-2.25,3.74,6.2,6.2,0,0,1-4,1.29,7.13,7.13,0,0,1-4-1,6.17,6.17,0,0,1-2.32-2.87,10.21,10.21,0,0,1-.79-4,8.85,8.85,0,0,1,.9-4.1,6.14,6.14,0,0,1,2.55-2.66,7.46,7.46,0,0,1,3.65-.91,6.17,6.17,0,0,1,3.79,1.15,6,6,0,0,1,2.14,3.23l-2,.46a4.65,4.65,0,0,0-1.52-2.39,4,4,0,0,0-2.5-.75,4.86,4.86,0,0,0-2.9.83,4.38,4.38,0,0,0-1.64,2.23,9,9,0,0,0-.47,2.89A9.17,9.17,0,0,0,307,118a4.16,4.16,0,0,0,1.74,2.14,4.87,4.87,0,0,0,2.55.71,4.27,4.27,0,0,0,2.83-1A4.93,4.93,0,0,0,315.71,117Z" transform="translate(26.4 23.3)"/><path d="M319.22,116.83a5.61,5.61,0,0,1,1.68-4.48,5.07,5.07,0,0,1,3.42-1.21,4.88,4.88,0,0,1,3.67,1.47,5.6,5.6,0,0,1,1.43,4.07,7.21,7.21,0,0,1-.63,3.31,4.47,4.47,0,0,1-1.84,1.87,5.35,5.35,0,0,1-2.63.67,4.89,4.89,0,0,1-3.7-1.47A5.85,5.85,0,0,1,319.22,116.83Zm1.9,0A4.64,4.64,0,0,0,322,120a3,3,0,0,0,4.58,0,4.75,4.75,0,0,0,.91-3.19,4.5,4.5,0,0,0-.92-3.06,3,3,0,0,0-4.58,0A4.62,4.62,0,0,0,321.12,116.83Z" transform="translate(26.4 23.3)"/><path d="M330.9,116.83a5.61,5.61,0,0,1,1.68-4.48,5.07,5.07,0,0,1,3.42-1.21,4.88,4.88,0,0,1,3.67,1.47,5.6,5.6,0,0,1,1.43,4.07,7.21,7.21,0,0,1-.63,3.31,4.47,4.47,0,0,1-1.84,1.87,5.35,5.35,0,0,1-2.63.67,4.89,4.89,0,0,1-3.7-1.47A5.85,5.85,0,0,1,330.9,116.83Zm1.9,0a4.64,4.64,0,0,0,.91,3.13,3,3,0,0,0,4.58,0,4.75,4.75,0,0,0,.91-3.19,4.5,4.5,0,0,0-.92-3.06,3,3,0,0,0-4.58,0A4.62,4.62,0,0,0,332.8,116.83Z" transform="translate(26.4 23.3)"/><path d="M343.28,122.27v-15h1.85v8.57l4.37-4.43h2.39l-4.16,4,4.58,6.85H350l-3.6-5.57-1.3,1.25v4.32h-1.85Z" transform="translate(26.4 23.3)"/><path d="M353.78,109.36v-2.12h1.85v2.12h-1.85Zm0,12.91V111.38h1.85v10.89h-1.85Z" transform="translate(26.4 23.3)"/><path d="M358.43,122.27V111.38h1.66v1.55a3.92,3.92,0,0,1,3.47-1.79,4.56,4.56,0,0,1,1.81.35,2.85,2.85,0,0,1,1.24.93,3.56,3.56,0,0,1,.57,1.36,10.58,10.58,0,0,1,.1,1.79v6.7h-1.85v-6.62a5,5,0,0,0-.22-1.69,1.78,1.78,0,0,0-.76-0.89,2.43,2.43,0,0,0-1.29-.33,3,3,0,0,0-2,.75,3.69,3.69,0,0,0-.86,2.84v5.95h-1.85Z" transform="translate(26.4 23.3)"/><path d="M369.77,123.17l1.79,0.27a1.71,1.71,0,0,0,.63,1.21,3.07,3.07,0,0,0,1.88.51,3.3,3.3,0,0,0,2-.51,2.52,2.52,0,0,0,.94-1.44,11.79,11.79,0,0,0,.13-2.37,3.79,3.79,0,0,1-3,1.43,4.11,4.11,0,0,1-3.48-1.62,6.24,6.24,0,0,1-1.23-3.89,7.24,7.24,0,0,1,.56-2.88,4.51,4.51,0,0,1,1.64-2,4.42,4.42,0,0,1,2.52-.72,3.9,3.9,0,0,1,3.18,1.56v-1.31H379v9.41a8.94,8.94,0,0,1-.52,3.6,3.8,3.8,0,0,1-1.64,1.68,5.69,5.69,0,0,1-2.76.62,5.21,5.21,0,0,1-3.15-.88A3,3,0,0,1,369.77,123.17Zm1.53-6.54a4.73,4.73,0,0,0,.85,3.13,2.7,2.7,0,0,0,2.13,1,2.73,2.73,0,0,0,2.13-1,4.57,4.57,0,0,0,.86-3.07,4.47,4.47,0,0,0-.89-3,2.74,2.74,0,0,0-2.14-1,2.66,2.66,0,0,0-2.09,1A4.44,4.44,0,0,0,371.3,116.63Z" transform="translate(26.4 23.3)"/><path d="M380.41,122.53L384.77,107h1.48l-4.35,15.54h-1.49Z" transform="translate(26.4 23.3)"/><path d="M387.86,122.27v-15H393a12.49,12.49,0,0,1,2.68.22,5.09,5.09,0,0,1,2.2,1.08,6.12,6.12,0,0,1,1.78,2.57,10.09,10.09,0,0,1,.59,3.57,10.5,10.5,0,0,1-.4,3,7.36,7.36,0,0,1-1,2.19,5.46,5.46,0,0,1-1.37,1.36,5.6,5.6,0,0,1-1.79.75,10.24,10.24,0,0,1-2.41.26h-5.42Zm2-1.77h3.21a7.78,7.78,0,0,0,2.33-.28,3.33,3.33,0,0,0,1.35-.78,4.75,4.75,0,0,0,1.1-1.9,9.31,9.31,0,0,0,.39-2.9,7,7,0,0,0-.77-3.62,3.9,3.9,0,0,0-1.88-1.7A7.78,7.78,0,0,0,393,109h-3.16V120.5Z" transform="translate(26.4 23.3)"/><path d="M402.77,122.27V111.38h1.66V113a4.5,4.5,0,0,1,1.17-1.53,2,2,0,0,1,1.18-.37,3.6,3.6,0,0,1,1.9.59l-0.64,1.71a2.63,2.63,0,0,0-1.35-.4,1.75,1.75,0,0,0-1.09.36,2,2,0,0,0-.69,1,7.19,7.19,0,0,0-.31,2.15v5.7h-1.85Z" transform="translate(26.4 23.3)"/><path d="M409.79,109.36v-2.12h1.85v2.12h-1.85Zm0,12.91V111.38h1.85v10.89h-1.85Z" transform="translate(26.4 23.3)"/><path d="M414.45,122.27V111.38h1.66v1.55a3.92,3.92,0,0,1,3.47-1.79,4.56,4.56,0,0,1,1.81.35,2.85,2.85,0,0,1,1.24.93,3.56,3.56,0,0,1,.57,1.36,10.58,10.58,0,0,1,.1,1.79v6.7h-1.85v-6.62a5,5,0,0,0-.22-1.69,1.78,1.78,0,0,0-.76-0.89,2.43,2.43,0,0,0-1.29-.33,3,3,0,0,0-2,.75,3.69,3.69,0,0,0-.86,2.84v5.95h-1.85Z" transform="translate(26.4 23.3)"/><path d="M426.14,122.27v-15H428v8.57l4.37-4.43h2.39l-4.16,4,4.58,6.85h-2.28l-3.6-5.57L428,118v4.32h-1.85Z" transform="translate(26.4 23.3)"/><path d="M436.64,109.36v-2.12h1.85v2.12h-1.85Zm0,12.91V111.38h1.85v10.89h-1.85Z" transform="translate(26.4 23.3)"/><path d="M441.29,122.27V111.38H443v1.55a3.92,3.92,0,0,1,3.47-1.79,4.56,4.56,0,0,1,1.81.35,2.85,2.85,0,0,1,1.24.93,3.56,3.56,0,0,1,.57,1.36,10.58,10.58,0,0,1,.1,1.79v6.7H448.3v-6.62a5,5,0,0,0-.22-1.69,1.78,1.78,0,0,0-.76-0.89,2.43,2.43,0,0,0-1.29-.33,3,3,0,0,0-2,.75,3.69,3.69,0,0,0-.86,2.84v5.95h-1.85Z" transform="translate(26.4 23.3)"/><path d="M452.64,123.17l1.79,0.27a1.71,1.71,0,0,0,.63,1.21,3.07,3.07,0,0,0,1.88.51,3.3,3.3,0,0,0,2-.51,2.52,2.52,0,0,0,.94-1.44,11.79,11.79,0,0,0,.13-2.37,3.79,3.79,0,0,1-3,1.43,4.11,4.11,0,0,1-3.48-1.62,6.24,6.24,0,0,1-1.23-3.89,7.24,7.24,0,0,1,.56-2.88,4.51,4.51,0,0,1,1.64-2,4.42,4.42,0,0,1,2.52-.72,3.9,3.9,0,0,1,3.18,1.56v-1.31h1.7v9.41a8.94,8.94,0,0,1-.52,3.6,3.8,3.8,0,0,1-1.64,1.68,5.69,5.69,0,0,1-2.76.62,5.21,5.21,0,0,1-3.15-.88A3,3,0,0,1,452.64,123.17Zm1.53-6.54a4.73,4.73,0,0,0,.85,3.13,2.7,2.7,0,0,0,2.13,1,2.73,2.73,0,0,0,2.13-1,4.57,4.57,0,0,0,.86-3.07,4.47,4.47,0,0,0-.89-3,2.74,2.74,0,0,0-2.14-1,2.66,2.66,0,0,0-2.09,1A4.44,4.44,0,0,0,454.16,116.63Z" transform="translate(26.4 23.3)"/></g><g class="cls-4"><path d="M93.79,63.82v-15h2V62.05h7.4v1.77H93.79Z" transform="translate(26.4 23.3)"/><path d="M112.43,62.48a6.84,6.84,0,0,1-2,1.23,5.71,5.71,0,0,1-2,.36,4,4,0,0,1-2.76-.88,2.89,2.89,0,0,1-1-2.24,3,3,0,0,1,.36-1.46,3,3,0,0,1,1-1.06,4.48,4.48,0,0,1,1.33-.6,13.17,13.17,0,0,1,1.64-.28,16.87,16.87,0,0,0,3.29-.64c0-.25,0-0.41,0-0.48a2,2,0,0,0-.52-1.59,3.09,3.09,0,0,0-2.1-.62,3.26,3.26,0,0,0-1.92.46,2.79,2.79,0,0,0-.92,1.61L105,56a4.48,4.48,0,0,1,.81-1.87,3.55,3.55,0,0,1,1.63-1.1,7.26,7.26,0,0,1,2.47-.38,6.54,6.54,0,0,1,2.27.33,3,3,0,0,1,1.28.83A2.91,2.91,0,0,1,114,55.1a10.41,10.41,0,0,1,.09,1.7v2.46a26.12,26.12,0,0,0,.12,3.25,4.11,4.11,0,0,0,.47,1.31H112.8A3.91,3.91,0,0,1,112.43,62.48Zm-0.15-4.12a13.54,13.54,0,0,1-3,.7,7,7,0,0,0-1.61.37,1.6,1.6,0,0,0-.73.6,1.63,1.63,0,0,0,.3,2.11,2.41,2.41,0,0,0,1.64.49,3.81,3.81,0,0,0,1.9-.47A2.87,2.87,0,0,0,112,60.88a4.45,4.45,0,0,0,.3-1.85V58.36Z" transform="translate(26.4 23.3)"/><path d="M124.14,63.82v-1.6a4,4,0,0,1-3.46,1.85,4.4,4.4,0,0,1-1.8-.37,3,3,0,0,1-1.24-.93,3.48,3.48,0,0,1-.57-1.37,9.37,9.37,0,0,1-.11-1.72V52.93h1.85v6a10.75,10.75,0,0,0,.11,1.95,1.92,1.92,0,0,0,.74,1.14,2.28,2.28,0,0,0,1.39.42,3,3,0,0,0,1.56-.42,2.37,2.37,0,0,0,1-1.16,5.81,5.81,0,0,0,.3-2.13V52.93h1.85V63.82h-1.65Z" transform="translate(26.4 23.3)"/><path d="M128.68,63.82V52.93h1.66v1.55a3.92,3.92,0,0,1,3.47-1.79,4.56,4.56,0,0,1,1.81.35,2.85,2.85,0,0,1,1.24.93,3.56,3.56,0,0,1,.57,1.36,10.58,10.58,0,0,1,.1,1.79v6.7h-1.85V57.2a5,5,0,0,0-.22-1.69,1.78,1.78,0,0,0-.76-0.89,2.43,2.43,0,0,0-1.29-.33,3,3,0,0,0-2,.75,3.69,3.69,0,0,0-.86,2.84v5.95h-1.85Z" transform="translate(26.4 23.3)"/><path d="M147.42,63.82V62.45a3.39,3.39,0,0,1-3,1.62,4.27,4.27,0,0,1-2.39-.72,4.72,4.72,0,0,1-1.69-2,6.93,6.93,0,0,1-.6-3,7.74,7.74,0,0,1,.54-3,4.28,4.28,0,0,1,1.63-2,4.35,4.35,0,0,1,2.43-.71,3.63,3.63,0,0,1,3,1.5V48.79h1.84v15h-1.71Zm-5.83-5.43a4.73,4.73,0,0,0,.88,3.13,2.66,2.66,0,0,0,2.08,1,2.61,2.61,0,0,0,2.06-1,4.56,4.56,0,0,0,.85-3,5.12,5.12,0,0,0-.86-3.28,2.65,2.65,0,0,0-2.12-1,2.56,2.56,0,0,0-2.06,1A5,5,0,0,0,141.59,58.39Z" transform="translate(26.4 23.3)"/><path d="M152,63.82V52.93h1.66v1.65a4.5,4.5,0,0,1,1.17-1.53,2,2,0,0,1,1.18-.37,3.6,3.6,0,0,1,1.9.59L157.3,55a2.63,2.63,0,0,0-1.35-.4,1.75,1.75,0,0,0-1.09.36,2,2,0,0,0-.69,1,7.19,7.19,0,0,0-.31,2.15v5.7H152Z" transform="translate(26.4 23.3)"/><path d="M158.95,68l-0.21-1.73a4.11,4.11,0,0,0,1.06.16,2,2,0,0,0,1-.21,1.68,1.68,0,0,0,.6-0.57A9.05,9.05,0,0,0,162,64.3l0.16-.45L158,52.93h2l2.27,6.31q0.44,1.2.79,2.52a24.93,24.93,0,0,1,.76-2.48l2.33-6.35H168L163.82,64a21.76,21.76,0,0,1-1,2.47,3.66,3.66,0,0,1-1.13,1.34,2.67,2.67,0,0,1-1.52.43A3.7,3.7,0,0,1,158.95,68Z" transform="translate(26.4 23.3)"/></g><path class="cls-6" d="M124.1,142a85,85,0,0,1,2.9-21.9,87.52,87.52,0,0,1,61.7-62.2,85.44,85.44,0,0,1,33.4-2.4,86.5,86.5,0,0,1,40.2,15.6c0.3,0.2.5,0.4,0.8,0.6a2.43,2.43,0,0,1-.9,2.1c-16,21.9-31.9,43.8-47.9,65.6a19.41,19.41,0,0,1-2.1,2.9,3,3,0,0,1-1,.4,15.06,15.06,0,0,1-3,.1c-26.8-.1-53.6-0.1-80.4-0.2C126.6,142.6,125.3,142.8,124.1,142Z" transform="translate(26.4 23.3)"/><path class="cls-7" d="M124.1,142c0.9,0,1.7.1,2.6,0.1,27.5,0.1,55,.1,82.5.2a11.33,11.33,0,0,1,2.6.1,1.51,1.51,0,0,1,.4.4c1.6,4,2.7,8.1,4.1,12.2,4.5,13.6,8.8,27.3,13.2,40.9,2.9,9,5.9,18.1,8.7,27.2a3,3,0,0,1,.2,2.3,52.31,52.31,0,0,1-10.3,2.8,90.3,90.3,0,0,1-18.7,1.6,87.53,87.53,0,0,1-32.3-7A87.52,87.52,0,0,1,125,155.7a75.7,75.7,0,0,1-1-11.6C124,143.3,124.1,142.7,124.1,142Z" transform="translate(26.4 23.3)"/><path class="cls-8" d="M238.4,225.5c-8.8-27.2-17.5-54.4-26.3-81.6a8.33,8.33,0,0,1-.4-1.5,8.08,8.08,0,0,1,3.1-.5c27.1,0.1,54.3.1,81.4,0.2a4.25,4.25,0,0,1,2.7.5,48.89,48.89,0,0,1-.5,10.1,87.54,87.54,0,0,1-58.9,72.6A3.09,3.09,0,0,1,238.4,225.5Z" transform="translate(26.4 23.3)"/><path class="cls-9" d="M298.9,142.5c-0.5,0-1.1.1-1.6,0.1-28.1-.1-56.2-0.1-84.2-0.2h-1.4c0.1-.2.3-0.4,0.4-0.6,5.1-4.6,10.9-8.3,16.5-12.3q18.3-13.35,36.8-26.6c5-3.6,10-7.3,15.1-10.9,0.6-.4,1.1-1.1,1.9-0.8a84.84,84.84,0,0,1,11.7,22.3A86.09,86.09,0,0,1,299,141,7.57,7.57,0,0,1,298.9,142.5Z" transform="translate(26.4 23.3)"/><path class="cls-10" d="M282.4,91.1l-58.2,42c-3.7,2.7-7.4,5.4-11.1,8-0.3.2-.7,0.4-1,0.6,1.9-3.2,4.2-6,6.4-9,5.2-7.2,10.5-14.4,15.7-21.6,6.1-8.3,12.2-16.6,18.2-24.9,3.5-4.9,7.1-9.7,10.6-14.6A81.63,81.63,0,0,1,282.4,91.1Z" transform="translate(26.4 23.3)"/><g class="cls-4"><path d="M294.69,74.44l2,0.5a6.7,6.7,0,0,1-2.25,3.74,6.2,6.2,0,0,1-4,1.29,7.13,7.13,0,0,1-4-1,6.17,6.17,0,0,1-2.32-2.87,10.21,10.21,0,0,1-.79-4,8.85,8.85,0,0,1,.9-4.1,6.14,6.14,0,0,1,2.55-2.66,7.46,7.46,0,0,1,3.65-.91,6.17,6.17,0,0,1,3.79,1.15,6,6,0,0,1,2.14,3.23l-2,.46a4.65,4.65,0,0,0-1.52-2.39,4,4,0,0,0-2.5-.75,4.86,4.86,0,0,0-2.9.83,4.38,4.38,0,0,0-1.64,2.23,9,9,0,0,0-.47,2.89,9.17,9.17,0,0,0,.56,3.35,4.16,4.16,0,0,0,1.74,2.14,4.87,4.87,0,0,0,2.55.71,4.27,4.27,0,0,0,2.83-1A4.93,4.93,0,0,0,294.69,74.44Z" transform="translate(26.4 23.3)"/><path d="M298.86,79.71v-15h1.85v15h-1.85Z" transform="translate(26.4 23.3)"/><path d="M311,76.2l1.91,0.24A4.65,4.65,0,0,1,311.25,79a5.66,5.66,0,0,1-6.91-.55,5.75,5.75,0,0,1-1.4-4.13,6,6,0,0,1,1.42-4.27A4.79,4.79,0,0,1,308,68.57a4.66,4.66,0,0,1,3.57,1.49A5.91,5.91,0,0,1,313,74.24q0,0.16,0,.49h-8.12a4.19,4.19,0,0,0,1,2.75,3,3,0,0,0,2.28,1,2.82,2.82,0,0,0,1.73-.53A3.54,3.54,0,0,0,311,76.2Zm-6.06-3H311a3.69,3.69,0,0,0-.7-2.06,2.83,2.83,0,0,0-2.29-1.07,2.94,2.94,0,0,0-2.14.85A3.37,3.37,0,0,0,305,73.22Z" transform="translate(26.4 23.3)"/><path d="M322.35,78.36a6.84,6.84,0,0,1-2,1.23,5.71,5.71,0,0,1-2,.36,4,4,0,0,1-2.76-.88,2.89,2.89,0,0,1-1-2.24,3,3,0,0,1,.36-1.46,3,3,0,0,1,1-1.06,4.48,4.48,0,0,1,1.33-.6,13.17,13.17,0,0,1,1.64-.28,16.87,16.87,0,0,0,3.29-.64c0-.25,0-0.41,0-0.48a2,2,0,0,0-.52-1.59,3.09,3.09,0,0,0-2.1-.62,3.26,3.26,0,0,0-1.92.46,2.79,2.79,0,0,0-.92,1.61l-1.8-.25a4.48,4.48,0,0,1,.81-1.87,3.55,3.55,0,0,1,1.63-1.1,7.26,7.26,0,0,1,2.47-.38,6.54,6.54,0,0,1,2.27.33,3,3,0,0,1,1.28.83A2.91,2.91,0,0,1,324,71a10.41,10.41,0,0,1,.09,1.7v2.46a26.12,26.12,0,0,0,.12,3.25,4.11,4.11,0,0,0,.47,1.31h-1.93A3.91,3.91,0,0,1,322.35,78.36Zm-0.15-4.12a13.54,13.54,0,0,1-3,.7,7,7,0,0,0-1.61.37,1.6,1.6,0,0,0-.73.6,1.63,1.63,0,0,0,.3,2.11,2.41,2.41,0,0,0,1.64.49,3.81,3.81,0,0,0,1.9-.47,2.87,2.87,0,0,0,1.22-1.28,4.45,4.45,0,0,0,.3-1.85V74.24Z" transform="translate(26.4 23.3)"/><path d="M326.92,79.71V68.82h1.66v1.55A3.92,3.92,0,0,1,332,68.57a4.56,4.56,0,0,1,1.81.35,2.85,2.85,0,0,1,1.24.93,3.56,3.56,0,0,1,.57,1.36,10.58,10.58,0,0,1,.1,1.79v6.7h-1.85V73.08a5,5,0,0,0-.22-1.69,1.78,1.78,0,0,0-.76-0.89,2.43,2.43,0,0,0-1.29-.33,3,3,0,0,0-2,.75,3.69,3.69,0,0,0-.86,2.84v5.95h-1.85Z" transform="translate(26.4 23.3)"/><path d="M338.61,66.8V64.68h1.85V66.8h-1.85Zm0,12.91V68.82h1.85V79.71h-1.85Z" transform="translate(26.4 23.3)"/><path d="M343.27,79.71V68.82h1.66v1.55a3.92,3.92,0,0,1,3.47-1.79,4.56,4.56,0,0,1,1.81.35,2.85,2.85,0,0,1,1.24.93,3.56,3.56,0,0,1,.57,1.36,10.58,10.58,0,0,1,.1,1.79v6.7h-1.85V73.08a5,5,0,0,0-.22-1.69,1.78,1.78,0,0,0-.76-0.89,2.43,2.43,0,0,0-1.29-.33,3,3,0,0,0-2,.75,3.69,3.69,0,0,0-.86,2.84v5.95h-1.85Z" transform="translate(26.4 23.3)"/><path d="M354.61,80.61l1.79,0.27a1.71,1.71,0,0,0,.63,1.21,3.07,3.07,0,0,0,1.88.51,3.3,3.3,0,0,0,2-.51,2.52,2.52,0,0,0,.94-1.44,11.79,11.79,0,0,0,.13-2.37,3.79,3.79,0,0,1-3,1.43,4.11,4.11,0,0,1-3.48-1.62,6.24,6.24,0,0,1-1.23-3.89,7.24,7.24,0,0,1,.56-2.88,4.51,4.51,0,0,1,1.64-2,4.42,4.42,0,0,1,2.52-.72,3.9,3.9,0,0,1,3.18,1.56V68.82h1.7v9.41a8.94,8.94,0,0,1-.52,3.6,3.8,3.8,0,0,1-1.64,1.68,5.69,5.69,0,0,1-2.76.62,5.21,5.21,0,0,1-3.15-.88A3,3,0,0,1,354.61,80.61Zm1.53-6.54A4.73,4.73,0,0,0,357,77.2a2.7,2.7,0,0,0,2.13,1,2.73,2.73,0,0,0,2.13-1,4.57,4.57,0,0,0,.86-3.07,4.47,4.47,0,0,0-.89-3,2.74,2.74,0,0,0-2.14-1,2.66,2.66,0,0,0-2.09,1A4.44,4.44,0,0,0,356.13,74.07Z" transform="translate(26.4 23.3)"/></g></svg>