<svg id="图层_1" data-name="图层 1" xmlns="http://www.w3.org/2000/svg" viewBox="0 0 1072.4 811.5"><defs><style>.cls-1{fill:#ccc;}.cls-2{fill:#2b7aae;}.cls-3{isolation:isolate;}.cls-4{fill:#329939;}.cls-5{fill:#ff7f0e;}.cls-6{fill:#8963a8;}.cls-7{fill:#d62728;}.cls-8{fill:#404040;}</style></defs><title>2 visible non visible-2</title><rect class="cls-1" width="1072.4" height="811.5"/><g id="main"><path class="cls-2" d="M584.2,383.8c-17.2,64.6-84,101.9-148.9,83.4s-103.6-85.9-86.4-150.5c4.2-16,108.2,45.7,117.7,33.6C481,331.9,404,242.1,426,234.8a122,122,0,0,1,71.9-1.4C562.8,251.8,601.4,319.2,584.2,383.8Z" transform="translate(26 18.8)"/></g><g class="cls-3"><path d="M344.67,299.94l-5-12.88h1.85l3.35,9.36q0.4,1.13.68,2.11,0.3-1.05.69-2.11l3.48-9.36h1.74l-5,12.88h-1.75Z" transform="translate(26 18.8)"/><path d="M352.47,288.88v-1.82h1.58v1.82h-1.58Zm0,11.07v-9.33h1.58v9.33h-1.58Z" transform="translate(26 18.8)"/><path d="M355.83,297.16l1.56-.25a2.19,2.19,0,0,0,.73,1.44,2.56,2.56,0,0,0,1.68.5,2.47,2.47,0,0,0,1.62-.44,1.33,1.33,0,0,0,.53-1,1,1,0,0,0-.47-0.84,6.86,6.86,0,0,0-1.62-.54,14.77,14.77,0,0,1-2.41-.76,2.31,2.31,0,0,1-1.37-2.14,2.41,2.41,0,0,1,.29-1.16,2.57,2.57,0,0,1,.78-0.88,3.26,3.26,0,0,1,1-.46,4.79,4.79,0,0,1,1.37-.19,5.4,5.4,0,0,1,1.93.32,2.62,2.62,0,0,1,1.23.86,3.34,3.34,0,0,1,.54,1.45l-1.55.21a1.69,1.69,0,0,0-.61-1.12,2.23,2.23,0,0,0-1.43-.4,2.59,2.59,0,0,0-1.56.36,1,1,0,0,0-.47.84,0.87,0.87,0,0,0,.19.55,1.4,1.4,0,0,0,.61.42q0.24,0.09,1.4.4a19.43,19.43,0,0,1,2.34.73,2.38,2.38,0,0,1,1,.83,2.32,2.32,0,0,1,.38,1.35,2.66,2.66,0,0,1-.46,1.49,3,3,0,0,1-1.33,1.08,4.83,4.83,0,0,1-2,.38,4.39,4.39,0,0,1-2.77-.76A3.52,3.52,0,0,1,355.83,297.16Z" transform="translate(26 18.8)"/><path d="M365.47,288.88v-1.82h1.58v1.82h-1.58Zm0,11.07v-9.33h1.58v9.33h-1.58Z" transform="translate(26 18.8)"/><path d="M370.92,299.94h-1.47V287.06H371v4.6a3.13,3.13,0,0,1,2.56-1.26,3.92,3.92,0,0,1,1.63.35,3.34,3.34,0,0,1,1.27,1,4.73,4.73,0,0,1,.78,1.52,6.25,6.25,0,0,1,.28,1.9,5.33,5.33,0,0,1-1.19,3.71,3.71,3.71,0,0,1-2.85,1.31,3,3,0,0,1-2.59-1.38v1.17Zm0-4.74a4.84,4.84,0,0,0,.46,2.43,2.26,2.26,0,0,0,3.81.32,4.1,4.1,0,0,0,.76-2.69,4.16,4.16,0,0,0-.73-2.7,2.21,2.21,0,0,0-1.75-.87,2.28,2.28,0,0,0-1.79.9A4,4,0,0,0,370.9,295.2Z" transform="translate(26 18.8)"/><path d="M379.44,299.94V287.06H381v12.88h-1.58Z" transform="translate(26 18.8)"/><path d="M389.86,296.94l1.63,0.2a4,4,0,0,1-1.43,2.22,4.85,4.85,0,0,1-5.92-.47,4.93,4.93,0,0,1-1.2-3.54,5.16,5.16,0,0,1,1.21-3.66,4.11,4.11,0,0,1,3.15-1.3,4,4,0,0,1,3.06,1.27,5.06,5.06,0,0,1,1.19,3.59q0,0.14,0,.42h-7a3.59,3.59,0,0,0,.87,2.36,2.59,2.59,0,0,0,2,.82,2.42,2.42,0,0,0,1.49-.46A3,3,0,0,0,389.86,296.94Zm-5.19-2.56h5.21a3.16,3.16,0,0,0-.6-1.77,2.42,2.42,0,0,0-2-.91,2.51,2.51,0,0,0-1.83.73A2.89,2.89,0,0,0,384.66,294.38Z" transform="translate(26 18.8)"/><path d="M400.2,299.94l-2.86-9.33H399l1.49,5.39,0.55,2,0.48-1.92,1.49-5.47h1.63L406,296l0.47,1.78L407,296l1.6-5.4h1.54l-2.92,9.33h-1.64l-1.49-5.59-0.36-1.59-1.89,7.18H400.2Z" transform="translate(26 18.8)"/><path d="M417.57,298.79a5.89,5.89,0,0,1-1.69,1.05,4.89,4.89,0,0,1-1.74.31,3.39,3.39,0,0,1-2.36-.75,2.48,2.48,0,0,1-.83-1.92,2.55,2.55,0,0,1,.31-1.25,2.58,2.58,0,0,1,.82-0.91,3.84,3.84,0,0,1,1.14-.52,11.3,11.3,0,0,1,1.41-.24,14.46,14.46,0,0,0,2.82-.54q0-.33,0-0.41a1.75,1.75,0,0,0-.45-1.36,2.65,2.65,0,0,0-1.8-.54,2.79,2.79,0,0,0-1.65.39,2.39,2.39,0,0,0-.79,1.38l-1.55-.21a3.84,3.84,0,0,1,.69-1.6,3,3,0,0,1,1.4-.94,6.21,6.21,0,0,1,2.12-.33,5.61,5.61,0,0,1,1.94.28,2.57,2.57,0,0,1,1.1.71,2.5,2.5,0,0,1,.49,1.08,8.91,8.91,0,0,1,.08,1.46V296a22.37,22.37,0,0,0,.1,2.79,3.51,3.51,0,0,0,.4,1.12h-1.65A3.35,3.35,0,0,1,417.57,298.79Zm-0.13-3.53a11.61,11.61,0,0,1-2.58.6,6,6,0,0,0-1.38.32,1.38,1.38,0,0,0-.62.51,1.4,1.4,0,0,0,.26,1.81,2.06,2.06,0,0,0,1.4.42,3.26,3.26,0,0,0,1.63-.4,2.46,2.46,0,0,0,1-1.09,3.82,3.82,0,0,0,.25-1.58v-0.58Z" transform="translate(26 18.8)"/><path d="M424.94,298.53l0.23,1.4a5.87,5.87,0,0,1-1.2.14,2.71,2.71,0,0,1-1.34-.27,1.52,1.52,0,0,1-.67-0.72,5.67,5.67,0,0,1-.19-1.87v-5.37h-1.16v-1.23h1.16V288.3l1.57-.95v3.26h1.59v1.23h-1.59v5.46a2.76,2.76,0,0,0,.08.87,0.66,0.66,0,0,0,.27.31,1.05,1.05,0,0,0,.54.11A5.15,5.15,0,0,0,424.94,298.53Z" transform="translate(26 18.8)"/><path d="M432.88,296.94l1.63,0.2a4,4,0,0,1-1.43,2.22,4.85,4.85,0,0,1-5.92-.47,4.93,4.93,0,0,1-1.2-3.54,5.16,5.16,0,0,1,1.21-3.66,4.11,4.11,0,0,1,3.15-1.3,4,4,0,0,1,3.06,1.27,5.06,5.06,0,0,1,1.19,3.59q0,0.14,0,.42h-7a3.59,3.59,0,0,0,.87,2.36,2.59,2.59,0,0,0,2,.82,2.42,2.42,0,0,0,1.49-.46A3,3,0,0,0,432.88,296.94Zm-5.19-2.56h5.21a3.16,3.16,0,0,0-.6-1.77,2.42,2.42,0,0,0-2-.91,2.51,2.51,0,0,0-1.83.73A2.89,2.89,0,0,0,427.69,294.38Z" transform="translate(26 18.8)"/><path d="M436.48,299.94v-9.33h1.42V292a3.86,3.86,0,0,1,1-1.31,1.76,1.76,0,0,1,1-.32,3.09,3.09,0,0,1,1.63.51L441,292.37a2.26,2.26,0,0,0-1.16-.34,1.51,1.51,0,0,0-.93.31,1.69,1.69,0,0,0-.59.87,6.16,6.16,0,0,0-.26,1.85v4.89h-1.58Z" transform="translate(26 18.8)"/></g><g class="cls-3"><path d="M409.55,398.92v-15h2v15h-2Z" transform="translate(26 18.8)"/><path d="M414.81,398.92V388h1.66v1.55a3.92,3.92,0,0,1,3.47-1.79,4.56,4.56,0,0,1,1.81.35,2.85,2.85,0,0,1,1.24.93,3.56,3.56,0,0,1,.57,1.36,10.58,10.58,0,0,1,.1,1.79v6.7h-1.85V392.3a5,5,0,0,0-.22-1.69,1.78,1.78,0,0,0-.76-0.89,2.43,2.43,0,0,0-1.29-.33,3,3,0,0,0-2,.75,3.69,3.69,0,0,0-.86,2.84v5.95h-1.85Z" transform="translate(26 18.8)"/><path d="M429.52,398.92L425.38,388h1.95l2.34,6.52q0.38,1.06.7,2.19,0.25-.86.69-2.07l2.42-6.64h1.9l-4.12,10.89h-1.72Z" transform="translate(26 18.8)"/><path d="M437,386v-2.12h1.85V386H437Zm0,12.91V388h1.85v10.89H437Z" transform="translate(26 18.8)"/><path d="M440.92,395.67l1.83-.29a2.55,2.55,0,0,0,.86,1.68,3,3,0,0,0,2,.58,2.89,2.89,0,0,0,1.89-.52,1.55,1.55,0,0,0,.62-1.21,1.12,1.12,0,0,0-.54-1,8,8,0,0,0-1.89-.63,17.29,17.29,0,0,1-2.81-.89,2.69,2.69,0,0,1-1.59-2.5,2.8,2.8,0,0,1,.33-1.35,3,3,0,0,1,.91-1,3.79,3.79,0,0,1,1.17-.54,5.57,5.57,0,0,1,1.59-.22,6.31,6.31,0,0,1,2.25.37,3.06,3.06,0,0,1,1.43,1,3.9,3.9,0,0,1,.64,1.69l-1.8.25a2,2,0,0,0-.71-1.31,2.61,2.61,0,0,0-1.67-.47,3,3,0,0,0-1.81.42,1.22,1.22,0,0,0-.54,1,1,1,0,0,0,.23.65,1.63,1.63,0,0,0,.71.49q0.28,0.1,1.63.47a22.63,22.63,0,0,1,2.73.86,2.77,2.77,0,0,1,1.21,1,2.7,2.7,0,0,1,.44,1.58,3.1,3.1,0,0,1-.54,1.74,3.48,3.48,0,0,1-1.55,1.26,5.65,5.65,0,0,1-2.3.45,5.12,5.12,0,0,1-3.23-.88A4.1,4.1,0,0,1,440.92,395.67Z" transform="translate(26 18.8)"/><path d="M452.17,386v-2.12H454V386h-1.85Zm0,12.91V388H454v10.89h-1.85Z" transform="translate(26 18.8)"/><path d="M458.53,398.92h-1.71v-15h1.85v5.36a3.65,3.65,0,0,1,3-1.47,4.56,4.56,0,0,1,1.9.41,3.88,3.88,0,0,1,1.48,1.14,5.52,5.52,0,0,1,.91,1.77,7.3,7.3,0,0,1,.33,2.21,6.22,6.22,0,0,1-1.38,4.33,4.33,4.33,0,0,1-3.32,1.53,3.47,3.47,0,0,1-3-1.61v1.36Zm0-5.53a5.65,5.65,0,0,0,.53,2.83,2.64,2.64,0,0,0,4.45.38,4.78,4.78,0,0,0,.88-3.13,4.86,4.86,0,0,0-.85-3.15,2.58,2.58,0,0,0-2-1,2.66,2.66,0,0,0-2.09,1.05A4.62,4.62,0,0,0,458.51,393.39Z" transform="translate(26 18.8)"/><path d="M468.46,398.92v-15h1.85v15h-1.85Z" transform="translate(26 18.8)"/><path d="M480.62,395.41l1.91,0.24a4.65,4.65,0,0,1-1.67,2.59,5.66,5.66,0,0,1-6.91-.55,5.75,5.75,0,0,1-1.4-4.13A6,6,0,0,1,474,389.3a4.79,4.79,0,0,1,3.67-1.52,4.66,4.66,0,0,1,3.57,1.49,5.91,5.91,0,0,1,1.38,4.18q0,0.16,0,.49h-8.12a4.19,4.19,0,0,0,1,2.75,3,3,0,0,0,2.28,1,2.82,2.82,0,0,0,1.73-.53A3.54,3.54,0,0,0,480.62,395.41Zm-6.06-3h6.08a3.69,3.69,0,0,0-.7-2.06,2.83,2.83,0,0,0-2.29-1.07,2.94,2.94,0,0,0-2.14.85A3.37,3.37,0,0,0,474.56,392.43Z" transform="translate(26 18.8)"/><path d="M492.69,398.92L489.36,388h1.91l1.73,6.29,0.65,2.34,0.56-2.25,1.73-6.38h1.9l1.63,6.32,0.54,2.08,0.63-2.1,1.87-6.3h1.79l-3.4,10.89H499l-1.73-6.52-0.42-1.86-2.2,8.38h-1.93Z" transform="translate(26 18.8)"/><path d="M513,397.58a6.84,6.84,0,0,1-2,1.23,5.71,5.71,0,0,1-2,.36,4,4,0,0,1-2.76-.88,2.89,2.89,0,0,1-1-2.24,3,3,0,0,1,.36-1.46,3,3,0,0,1,1-1.06,4.48,4.48,0,0,1,1.33-.6,13.17,13.17,0,0,1,1.64-.28,16.87,16.87,0,0,0,3.29-.64c0-.25,0-0.41,0-0.48a2,2,0,0,0-.52-1.59,3.09,3.09,0,0,0-2.1-.62,3.26,3.26,0,0,0-1.92.46,2.79,2.79,0,0,0-.92,1.61l-1.8-.25a4.48,4.48,0,0,1,.81-1.87,3.55,3.55,0,0,1,1.63-1.1,7.26,7.26,0,0,1,2.47-.38,6.54,6.54,0,0,1,2.27.33,3,3,0,0,1,1.28.83,2.91,2.91,0,0,1,.57,1.26,10.55,10.55,0,0,1,.09,1.7v2.46a26.26,26.26,0,0,0,.12,3.25,4.12,4.12,0,0,0,.47,1.31h-1.93A3.91,3.91,0,0,1,513,397.58Zm-0.15-4.12a13.54,13.54,0,0,1-3,.7,7,7,0,0,0-1.61.37,1.6,1.6,0,0,0-.73.6,1.63,1.63,0,0,0,.3,2.11,2.41,2.41,0,0,0,1.64.49,3.81,3.81,0,0,0,1.9-.47A2.87,2.87,0,0,0,512.5,396a4.44,4.44,0,0,0,.3-1.85v-0.68Z" transform="translate(26 18.8)"/><path d="M521.56,397.27l0.27,1.63a6.85,6.85,0,0,1-1.39.16,3.17,3.17,0,0,1-1.56-.32,1.78,1.78,0,0,1-.78-0.84,6.62,6.62,0,0,1-.23-2.18v-6.26h-1.35V388h1.35v-2.7l1.84-1.11V388h1.86v1.44H519.7v6.37a3.21,3.21,0,0,0,.1,1,0.76,0.76,0,0,0,.32.36,1.21,1.21,0,0,0,.63.13A6,6,0,0,0,521.56,397.27Z" transform="translate(26 18.8)"/><path d="M530.82,395.41l1.91,0.24a4.65,4.65,0,0,1-1.67,2.59,5.66,5.66,0,0,1-6.91-.55,5.75,5.75,0,0,1-1.4-4.13,6,6,0,0,1,1.42-4.27,4.79,4.79,0,0,1,3.67-1.52,4.66,4.66,0,0,1,3.57,1.49,5.91,5.91,0,0,1,1.38,4.18c0,0.11,0,.27,0,0.49h-8.12a4.19,4.19,0,0,0,1,2.75,3,3,0,0,0,2.28,1,2.82,2.82,0,0,0,1.73-.53A3.55,3.55,0,0,0,530.82,395.41Zm-6.06-3h6.08a3.69,3.69,0,0,0-.7-2.06,2.83,2.83,0,0,0-2.29-1.07,2.93,2.93,0,0,0-2.14.85A3.37,3.37,0,0,0,524.76,392.43Z" transform="translate(26 18.8)"/><path d="M535,398.92V388h1.66v1.65a4.5,4.5,0,0,1,1.17-1.53,2,2,0,0,1,1.18-.37,3.6,3.6,0,0,1,1.9.59l-0.64,1.71a2.63,2.63,0,0,0-1.35-.4,1.75,1.75,0,0,0-1.09.36,2,2,0,0,0-.69,1,7.19,7.19,0,0,0-.31,2.15v5.7H535Z" transform="translate(26 18.8)"/></g><g class="cls-3"><path d="M54,222.9l1.8-.16a4.25,4.25,0,0,0,.6,1.85,3.28,3.28,0,0,0,1.45,1.17,5.33,5.33,0,0,0,2.22.45,5.14,5.14,0,0,0,1.93-.34,2.69,2.69,0,0,0,1.25-.93,2.21,2.21,0,0,0,.41-1.29,2,2,0,0,0-.39-1.24,2.92,2.92,0,0,0-1.3-.89,24.68,24.68,0,0,0-2.57-.73,12.79,12.79,0,0,1-2.79-.94,4,4,0,0,1-1.54-1.4,3.53,3.53,0,0,1-.51-1.87,3.93,3.93,0,0,1,.62-2.13,3.88,3.88,0,0,1,1.81-1.5,6.65,6.65,0,0,1,2.65-.51,7,7,0,0,1,2.83.54,4.12,4.12,0,0,1,1.89,1.58,4.68,4.68,0,0,1,.71,2.37l-1.83.14a3.12,3.12,0,0,0-1-2.15,3.79,3.79,0,0,0-2.52-.73,3.93,3.93,0,0,0-2.53.66,2,2,0,0,0-.79,1.59,1.74,1.74,0,0,0,.56,1.33,7.43,7.43,0,0,0,2.88,1.07,18.56,18.56,0,0,1,3.2,1,4.42,4.42,0,0,1,1.86,1.53,3.84,3.84,0,0,1,.6,2.14,4.2,4.2,0,0,1-.66,2.26,4.4,4.4,0,0,1-1.9,1.65,6.41,6.41,0,0,1-2.79.59,8,8,0,0,1-3.29-.59,4.65,4.65,0,0,1-2.08-1.79A5.22,5.22,0,0,1,54,222.9Z" transform="translate(26 18.8)"/><path d="M67.85,227.73v-15h1.78v5.39a3.9,3.9,0,0,1,3.14-1.5,4.1,4.1,0,0,1,2,.48A2.76,2.76,0,0,1,76,218.39a6.29,6.29,0,0,1,.37,2.44v6.9H74.61v-6.9a2.93,2.93,0,0,0-.58-2,2.1,2.1,0,0,0-1.63-.63,2.8,2.8,0,0,0-1.48.43,2.38,2.38,0,0,0-1,1.15,5.49,5.49,0,0,0-.3,2v6H67.85Z" transform="translate(26 18.8)"/><path d="M78.42,222.28A5.73,5.73,0,0,1,80,217.8a4.76,4.76,0,0,1,3.29-1.21,4.61,4.61,0,0,1,3.53,1.47,5.73,5.73,0,0,1,1.37,4.07,7.45,7.45,0,0,1-.61,3.31,4.39,4.39,0,0,1-1.77,1.87,5,5,0,0,1-2.53.67,4.62,4.62,0,0,1-3.56-1.47A6,6,0,0,1,78.42,222.28Zm1.82,0a4.76,4.76,0,0,0,.88,3.13,2.85,2.85,0,0,0,4.41,0,4.88,4.88,0,0,0,.88-3.19,4.62,4.62,0,0,0-.88-3.06,2.85,2.85,0,0,0-4.4,0A4.74,4.74,0,0,0,80.25,222.28Z" transform="translate(26 18.8)"/><path d="M92.25,227.73L89,216.84h1.83l1.67,6.29,0.62,2.34,0.54-2.25,1.67-6.38H97.2l1.57,6.32,0.52,2.08,0.6-2.1,1.79-6.3h1.73l-3.27,10.89H98.29l-1.67-6.52-0.4-1.86-2.12,8.38H92.25Z" transform="translate(26 18.8)"/><path d="M112.07,224.22l1.83,0.24a4.94,4.94,0,0,1-8.25,2,5.89,5.89,0,0,1-1.35-4.13,6.17,6.17,0,0,1,1.36-4.27,4.52,4.52,0,0,1,3.53-1.52,4.4,4.4,0,0,1,3.43,1.49,6.06,6.06,0,0,1,1.33,4.18q0,0.16,0,.49h-7.81a4.28,4.28,0,0,0,1,2.75,2.85,2.85,0,0,0,2.19,1,2.65,2.65,0,0,0,1.67-.53A3.55,3.55,0,0,0,112.07,224.22Zm-5.83-3h5.85a3.78,3.78,0,0,0-.67-2.06,2.68,2.68,0,0,0-2.2-1.07,2.76,2.76,0,0,0-2.06.85A3.43,3.43,0,0,0,106.24,221.24Z" transform="translate(26 18.8)"/><path d="M116.11,227.73V216.84h1.6v1.65a4.48,4.48,0,0,1,1.13-1.53,1.92,1.92,0,0,1,1.14-.37,3.37,3.37,0,0,1,1.82.59l-0.61,1.71a2.47,2.47,0,0,0-1.3-.4,1.65,1.65,0,0,0-1,.36,2,2,0,0,0-.66,1,7.45,7.45,0,0,0-.3,2.15v5.7h-1.77Z" transform="translate(26 18.8)"/><path d="M122.87,214.82V212.7h1.77v2.12h-1.77Zm0,12.91V216.84h1.77v10.89h-1.77Z" transform="translate(26 18.8)"/><path d="M127.35,227.73V216.84h1.6v1.55a3.73,3.73,0,0,1,3.33-1.79,4.24,4.24,0,0,1,1.74.35,2.76,2.76,0,0,1,1.19.93,3.63,3.63,0,0,1,.55,1.36,11,11,0,0,1,.1,1.79v6.7h-1.77v-6.62a5.15,5.15,0,0,0-.21-1.69,1.76,1.76,0,0,0-.73-0.89,2.27,2.27,0,0,0-1.24-.33,2.81,2.81,0,0,0-2,.75,3.79,3.79,0,0,0-.82,2.84v5.95h-1.78Z" transform="translate(26 18.8)"/><path d="M138.25,228.63L140,228.9a1.73,1.73,0,0,0,.6,1.21,2.87,2.87,0,0,0,1.8.51,3.08,3.08,0,0,0,1.9-.51,2.53,2.53,0,0,0,.91-1.44,12.26,12.26,0,0,0,.13-2.37,3.6,3.6,0,0,1-2.9,1.43,3.9,3.9,0,0,1-3.34-1.62,6.41,6.41,0,0,1-1.18-3.89,7.48,7.48,0,0,1,.54-2.88,4.48,4.48,0,0,1,1.57-2,4.13,4.13,0,0,1,2.42-.72,3.71,3.71,0,0,1,3.06,1.56v-1.31h1.64v9.41a9.25,9.25,0,0,1-.5,3.6,3.73,3.73,0,0,1-1.58,1.68,5.3,5.3,0,0,1-2.66.62,4.88,4.88,0,0,1-3-.88A3,3,0,0,1,138.25,228.63Zm1.47-6.54a4.86,4.86,0,0,0,.82,3.13,2.63,2.63,0,0,0,4.1,0,4.7,4.7,0,0,0,.83-3.07,4.59,4.59,0,0,0-.85-3,2.6,2.6,0,0,0-2.06-1,2.53,2.53,0,0,0-2,1A4.57,4.57,0,0,0,139.72,222.09Z" transform="translate(26 18.8)"/></g><g class="cls-3"><path d="M294,211.23v-15h10.14V198H296v4.65H303v1.77H296v6.83h-2Z" transform="translate(26 18.8)"/><path d="M306.42,211.23v-15h1.85v15h-1.85Z" transform="translate(26 18.8)"/><path d="M318.26,211.23v-1.6a4,4,0,0,1-3.46,1.85,4.4,4.4,0,0,1-1.8-.37,3,3,0,0,1-1.24-.93,3.48,3.48,0,0,1-.57-1.37,9.37,9.37,0,0,1-.11-1.72v-6.75h1.85v6a10.75,10.75,0,0,0,.11,1.95,1.92,1.92,0,0,0,.74,1.14,2.28,2.28,0,0,0,1.39.42,3,3,0,0,0,1.56-.42,2.37,2.37,0,0,0,1-1.16,5.81,5.81,0,0,0,.3-2.13v-5.83h1.85v10.89h-1.65Z" transform="translate(26 18.8)"/><path d="M322.06,208l1.83-.29a2.55,2.55,0,0,0,.86,1.68,3,3,0,0,0,2,.58,2.89,2.89,0,0,0,1.89-.52,1.55,1.55,0,0,0,.62-1.21,1.12,1.12,0,0,0-.54-1,8,8,0,0,0-1.89-.63,17.29,17.29,0,0,1-2.81-.89,2.69,2.69,0,0,1-1.59-2.5,2.8,2.8,0,0,1,.33-1.35,3,3,0,0,1,.91-1,3.79,3.79,0,0,1,1.17-.54,5.57,5.57,0,0,1,1.59-.22,6.31,6.31,0,0,1,2.25.37,3.06,3.06,0,0,1,1.43,1,3.9,3.9,0,0,1,.64,1.69l-1.8.25a2,2,0,0,0-.71-1.31,2.61,2.61,0,0,0-1.67-.47,3,3,0,0,0-1.81.42,1.22,1.22,0,0,0-.54,1,1,1,0,0,0,.23.65,1.63,1.63,0,0,0,.71.49q0.28,0.1,1.63.47a22.63,22.63,0,0,1,2.73.86,2.77,2.77,0,0,1,1.21,1,2.7,2.7,0,0,1,.44,1.58,3.1,3.1,0,0,1-.54,1.74A3.48,3.48,0,0,1,329,211a5.65,5.65,0,0,1-2.3.45,5.12,5.12,0,0,1-3.23-.88A4.1,4.1,0,0,1,322.06,208Z" transform="translate(26 18.8)"/><path d="M333.3,211.23v-15h1.85v5.39a4.12,4.12,0,0,1,3.26-1.5,4.4,4.4,0,0,1,2.1.48,2.8,2.8,0,0,1,1.28,1.32,6.07,6.07,0,0,1,.38,2.44v6.9h-1.85v-6.9a2.85,2.85,0,0,0-.6-2,2.23,2.23,0,0,0-1.7-.63,3,3,0,0,0-1.54.43,2.41,2.41,0,0,0-1,1.15,5.3,5.3,0,0,0-.31,2v6H333.3Z" transform="translate(26 18.8)"/><path d="M345,198.32V196.2h1.85v2.12H345Zm0,12.91V200.34h1.85v10.89H345Z" transform="translate(26 18.8)"/><path d="M349.65,211.23V200.34h1.66v1.55a3.92,3.92,0,0,1,3.47-1.79,4.56,4.56,0,0,1,1.81.35,2.85,2.85,0,0,1,1.24.93,3.56,3.56,0,0,1,.57,1.36,10.58,10.58,0,0,1,.1,1.79v6.7h-1.85v-6.62a5,5,0,0,0-.22-1.69,1.78,1.78,0,0,0-.76-0.89,2.43,2.43,0,0,0-1.29-.33,3,3,0,0,0-2,.75,3.69,3.69,0,0,0-.86,2.84v5.95h-1.85Z" transform="translate(26 18.8)"/><path d="M361,212.13l1.79,0.27a1.71,1.71,0,0,0,.63,1.21,3.07,3.07,0,0,0,1.88.51,3.3,3.3,0,0,0,2-.51,2.52,2.52,0,0,0,.94-1.44,11.79,11.79,0,0,0,.13-2.37,3.79,3.79,0,0,1-3,1.43,4.11,4.11,0,0,1-3.48-1.62,6.24,6.24,0,0,1-1.23-3.89,7.24,7.24,0,0,1,.56-2.88,4.51,4.51,0,0,1,1.64-2,4.42,4.42,0,0,1,2.52-.72,3.9,3.9,0,0,1,3.18,1.56v-1.31h1.7v9.41a8.94,8.94,0,0,1-.52,3.6,3.8,3.8,0,0,1-1.64,1.68,5.69,5.69,0,0,1-2.76.62,5.21,5.21,0,0,1-3.15-.88A3,3,0,0,1,361,212.13Zm1.53-6.54a4.73,4.73,0,0,0,.85,3.13,2.7,2.7,0,0,0,2.13,1,2.73,2.73,0,0,0,2.13-1,4.57,4.57,0,0,0,.86-3.07,4.47,4.47,0,0,0-.89-3,2.74,2.74,0,0,0-2.14-1,2.66,2.66,0,0,0-2.09,1A4.44,4.44,0,0,0,362.51,205.59Z" transform="translate(26 18.8)"/><path d="M382.52,211.23V198h-5V196.2h11.92V198h-5v13.26h-2Z" transform="translate(26 18.8)"/><path d="M388.27,205.78A5.61,5.61,0,0,1,390,201.3a5.07,5.07,0,0,1,3.42-1.21,4.88,4.88,0,0,1,3.67,1.47,5.6,5.6,0,0,1,1.43,4.07,7.21,7.21,0,0,1-.63,3.31,4.47,4.47,0,0,1-1.84,1.87,5.35,5.35,0,0,1-2.63.67,4.89,4.89,0,0,1-3.7-1.47A5.85,5.85,0,0,1,388.27,205.78Zm1.9,0a4.64,4.64,0,0,0,.91,3.13,3,3,0,0,0,4.58,0,4.75,4.75,0,0,0,.91-3.19,4.5,4.5,0,0,0-.92-3.06,3,3,0,0,0-4.58,0A4.62,4.62,0,0,0,390.17,205.78Z" transform="translate(26 18.8)"/><path d="M400.65,198.32V196.2h1.85v2.12h-1.85Zm0,12.91V200.34h1.85v10.89h-1.85Z" transform="translate(26 18.8)"/><path d="M405.26,211.23v-15h1.85v15h-1.85Z" transform="translate(26 18.8)"/><path d="M417.42,207.72l1.91,0.24a4.65,4.65,0,0,1-1.67,2.59,5.66,5.66,0,0,1-6.91-.55,5.75,5.75,0,0,1-1.4-4.13,6,6,0,0,1,1.42-4.27,4.79,4.79,0,0,1,3.67-1.52,4.66,4.66,0,0,1,3.57,1.49,5.91,5.91,0,0,1,1.38,4.18q0,0.16,0,.49h-8.12a4.19,4.19,0,0,0,1,2.75,3,3,0,0,0,2.28,1,2.82,2.82,0,0,0,1.73-.53A3.54,3.54,0,0,0,417.42,207.72Zm-6.06-3h6.08a3.69,3.69,0,0,0-.7-2.06,2.83,2.83,0,0,0-2.29-1.07,2.94,2.94,0,0,0-2.14.85A3.37,3.37,0,0,0,411.36,204.74Z" transform="translate(26 18.8)"/><path d="M425.68,209.58l0.27,1.63a6.85,6.85,0,0,1-1.39.16,3.17,3.17,0,0,1-1.56-.32,1.78,1.78,0,0,1-.78-0.84A6.62,6.62,0,0,1,422,208v-6.26h-1.35v-1.44H422v-2.7l1.84-1.11v3.8h1.86v1.44h-1.86v6.37a3.22,3.22,0,0,0,.1,1,0.76,0.76,0,0,0,.32.36,1.22,1.22,0,0,0,.63.13A6,6,0,0,0,425.68,209.58Z" transform="translate(26 18.8)"/></g><g class="cls-3"><path d="M314.4,120l2,0.5a6.7,6.7,0,0,1-2.25,3.74,6.2,6.2,0,0,1-4,1.29,7.13,7.13,0,0,1-4-1,6.17,6.17,0,0,1-2.32-2.87,10.21,10.21,0,0,1-.79-4,8.85,8.85,0,0,1,.9-4.1,6.14,6.14,0,0,1,2.55-2.66,7.46,7.46,0,0,1,3.65-.91,6.17,6.17,0,0,1,3.79,1.15,6,6,0,0,1,2.14,3.23l-2,.46a4.65,4.65,0,0,0-1.52-2.39,4,4,0,0,0-2.5-.75,4.86,4.86,0,0,0-2.9.83,4.38,4.38,0,0,0-1.64,2.23,9,9,0,0,0-.47,2.89,9.17,9.17,0,0,0,.56,3.35,4.16,4.16,0,0,0,1.74,2.14,4.87,4.87,0,0,0,2.55.71,4.27,4.27,0,0,0,2.83-1A4.93,4.93,0,0,0,314.4,120Z" transform="translate(26 18.8)"/><path d="M317.91,119.86a5.61,5.61,0,0,1,1.68-4.48,5.07,5.07,0,0,1,3.42-1.21,4.88,4.88,0,0,1,3.67,1.47,5.6,5.6,0,0,1,1.43,4.07,7.21,7.21,0,0,1-.63,3.31,4.47,4.47,0,0,1-1.84,1.87,5.35,5.35,0,0,1-2.63.67,4.89,4.89,0,0,1-3.7-1.47A5.85,5.85,0,0,1,317.91,119.86Zm1.9,0a4.64,4.64,0,0,0,.91,3.13,3,3,0,0,0,4.58,0,4.75,4.75,0,0,0,.91-3.19,4.5,4.5,0,0,0-.92-3.06,3,3,0,0,0-4.58,0A4.62,4.62,0,0,0,319.81,119.86Z" transform="translate(26 18.8)"/><path d="M329.59,119.86a5.61,5.61,0,0,1,1.68-4.48,5.07,5.07,0,0,1,3.42-1.21,4.88,4.88,0,0,1,3.67,1.47,5.6,5.6,0,0,1,1.43,4.07,7.21,7.21,0,0,1-.63,3.31,4.47,4.47,0,0,1-1.84,1.87,5.35,5.35,0,0,1-2.63.67,4.89,4.89,0,0,1-3.7-1.47A5.85,5.85,0,0,1,329.59,119.86Zm1.9,0a4.64,4.64,0,0,0,.91,3.13,3,3,0,0,0,4.58,0,4.75,4.75,0,0,0,.91-3.19,4.5,4.5,0,0,0-.92-3.06,3,3,0,0,0-4.58,0A4.62,4.62,0,0,0,331.49,119.86Z" transform="translate(26 18.8)"/><path d="M342,125.3v-15h1.85v8.57l4.37-4.43h2.39l-4.16,4L351,125.3h-2.28l-3.6-5.57-1.3,1.25v4.32H342Z" transform="translate(26 18.8)"/><path d="M352.47,112.39v-2.12h1.85v2.12h-1.85Zm0,12.91V114.42h1.85V125.3h-1.85Z" transform="translate(26 18.8)"/><path d="M357.13,125.3V114.42h1.66V116a3.92,3.92,0,0,1,3.47-1.79,4.56,4.56,0,0,1,1.81.35,2.85,2.85,0,0,1,1.24.93,3.56,3.56,0,0,1,.57,1.36,10.58,10.58,0,0,1,.1,1.79v6.7h-1.85v-6.62a5,5,0,0,0-.22-1.69,1.78,1.78,0,0,0-.76-0.89,2.43,2.43,0,0,0-1.29-.33,3,3,0,0,0-2,.75,3.69,3.69,0,0,0-.86,2.84v5.95h-1.85Z" transform="translate(26 18.8)"/><path d="M368.47,126.21l1.79,0.27a1.71,1.71,0,0,0,.63,1.21,3.07,3.07,0,0,0,1.88.51,3.3,3.3,0,0,0,2-.51,2.52,2.52,0,0,0,.94-1.44,11.79,11.79,0,0,0,.13-2.37,3.79,3.79,0,0,1-3,1.43,4.11,4.11,0,0,1-3.48-1.62,6.24,6.24,0,0,1-1.23-3.89,7.24,7.24,0,0,1,.56-2.88,4.51,4.51,0,0,1,1.64-2,4.42,4.42,0,0,1,2.52-.72,3.9,3.9,0,0,1,3.18,1.56v-1.31h1.7v9.41a8.94,8.94,0,0,1-.52,3.6,3.8,3.8,0,0,1-1.64,1.68,5.69,5.69,0,0,1-2.76.62,5.21,5.21,0,0,1-3.15-.88A3,3,0,0,1,368.47,126.21Zm1.53-6.54a4.73,4.73,0,0,0,.85,3.13,2.7,2.7,0,0,0,2.13,1,2.73,2.73,0,0,0,2.13-1,4.57,4.57,0,0,0,.86-3.07,4.47,4.47,0,0,0-.89-3,2.74,2.74,0,0,0-2.14-1,2.66,2.66,0,0,0-2.09,1A4.44,4.44,0,0,0,370,119.67Z" transform="translate(26 18.8)"/><path d="M379.1,125.56L383.46,110h1.48l-4.35,15.54H379.1Z" transform="translate(26 18.8)"/><path d="M386.55,125.3v-15h5.18a12.49,12.49,0,0,1,2.68.22,5.09,5.09,0,0,1,2.2,1.08,6.12,6.12,0,0,1,1.78,2.57,10.09,10.09,0,0,1,.59,3.57,10.5,10.5,0,0,1-.4,3,7.36,7.36,0,0,1-1,2.19,5.46,5.46,0,0,1-1.37,1.36,5.6,5.6,0,0,1-1.79.75,10.24,10.24,0,0,1-2.41.26h-5.42Zm2-1.77h3.21a7.78,7.78,0,0,0,2.33-.28,3.33,3.33,0,0,0,1.35-.78,4.75,4.75,0,0,0,1.1-1.9,9.31,9.31,0,0,0,.39-2.9,7,7,0,0,0-.77-3.62,3.9,3.9,0,0,0-1.88-1.7,7.78,7.78,0,0,0-2.57-.31h-3.16v11.48Z" transform="translate(26 18.8)"/><path d="M401.46,125.3V114.42h1.66v1.65a4.5,4.5,0,0,1,1.17-1.53,2,2,0,0,1,1.18-.37,3.6,3.6,0,0,1,1.9.59l-0.64,1.71a2.63,2.63,0,0,0-1.35-.4,1.75,1.75,0,0,0-1.09.36,2,2,0,0,0-.69,1,7.19,7.19,0,0,0-.31,2.15v5.7h-1.85Z" transform="translate(26 18.8)"/><path d="M408.49,112.39v-2.12h1.85v2.12h-1.85Zm0,12.91V114.42h1.85V125.3h-1.85Z" transform="translate(26 18.8)"/><path d="M413.14,125.3V114.42h1.66V116a3.92,3.92,0,0,1,3.47-1.79,4.56,4.56,0,0,1,1.81.35,2.85,2.85,0,0,1,1.24.93,3.56,3.56,0,0,1,.57,1.36,10.58,10.58,0,0,1,.1,1.79v6.7h-1.85v-6.62a5,5,0,0,0-.22-1.69,1.78,1.78,0,0,0-.76-0.89,2.43,2.43,0,0,0-1.29-.33,3,3,0,0,0-2,.75,3.69,3.69,0,0,0-.86,2.84v5.95h-1.85Z" transform="translate(26 18.8)"/><path d="M424.83,125.3v-15h1.85v8.57l4.37-4.43h2.39l-4.16,4,4.58,6.85h-2.28l-3.6-5.57-1.3,1.25v4.32h-1.85Z" transform="translate(26 18.8)"/><path d="M435.33,112.39v-2.12h1.85v2.12h-1.85Zm0,12.91V114.42h1.85V125.3h-1.85Z" transform="translate(26 18.8)"/><path d="M440,125.3V114.42h1.66V116a3.92,3.92,0,0,1,3.47-1.79,4.56,4.56,0,0,1,1.81.35,2.85,2.85,0,0,1,1.24.93,3.56,3.56,0,0,1,.57,1.36,10.58,10.58,0,0,1,.1,1.79v6.7H447v-6.62a5,5,0,0,0-.22-1.69,1.78,1.78,0,0,0-.76-0.89,2.43,2.43,0,0,0-1.29-.33,3,3,0,0,0-2,.75,3.69,3.69,0,0,0-.86,2.84v5.95H440Z" transform="translate(26 18.8)"/><path d="M451.33,126.21l1.79,0.27a1.71,1.71,0,0,0,.63,1.21,3.07,3.07,0,0,0,1.88.51,3.3,3.3,0,0,0,2-.51,2.52,2.52,0,0,0,.94-1.44,11.79,11.79,0,0,0,.13-2.37,3.79,3.79,0,0,1-3,1.43,4.11,4.11,0,0,1-3.48-1.62A6.24,6.24,0,0,1,451,119.8a7.24,7.24,0,0,1,.56-2.88,4.51,4.51,0,0,1,1.64-2,4.42,4.42,0,0,1,2.52-.72,3.9,3.9,0,0,1,3.18,1.56v-1.31h1.7v9.41a8.94,8.94,0,0,1-.52,3.6,3.8,3.8,0,0,1-1.64,1.68,5.69,5.69,0,0,1-2.76.62,5.21,5.21,0,0,1-3.15-.88A3,3,0,0,1,451.33,126.21Zm1.53-6.54a4.73,4.73,0,0,0,.85,3.13,2.7,2.7,0,0,0,2.13,1,2.73,2.73,0,0,0,2.13-1,4.57,4.57,0,0,0,.86-3.07,4.47,4.47,0,0,0-.89-3,2.74,2.74,0,0,0-2.14-1,2.66,2.66,0,0,0-2.09,1A4.44,4.44,0,0,0,452.86,119.67Z" transform="translate(26 18.8)"/></g><g class="cls-3"><path d="M92.49,66.86v-15h2V65.08h7.4v1.77H92.49Z" transform="translate(26 18.8)"/><path d="M111.12,65.51a6.84,6.84,0,0,1-2,1.23,5.71,5.71,0,0,1-2,.36,4,4,0,0,1-2.76-.88,2.89,2.89,0,0,1-1-2.24,3,3,0,0,1,.36-1.46,3,3,0,0,1,1-1.06,4.48,4.48,0,0,1,1.33-.6,13.17,13.17,0,0,1,1.64-.28,16.87,16.87,0,0,0,3.29-.64c0-.25,0-0.41,0-0.48a2,2,0,0,0-.52-1.59,3.09,3.09,0,0,0-2.1-.62,3.26,3.26,0,0,0-1.92.46,2.79,2.79,0,0,0-.92,1.61l-1.8-.25a4.48,4.48,0,0,1,.81-1.87,3.55,3.55,0,0,1,1.63-1.1,7.26,7.26,0,0,1,2.47-.38,6.54,6.54,0,0,1,2.27.33,3,3,0,0,1,1.28.83,2.91,2.91,0,0,1,.57,1.26,10.41,10.41,0,0,1,.09,1.7V62.3a26.12,26.12,0,0,0,.12,3.25,4.11,4.11,0,0,0,.47,1.31h-1.93A3.91,3.91,0,0,1,111.12,65.51ZM111,61.39a13.54,13.54,0,0,1-3,.7,7,7,0,0,0-1.61.37,1.6,1.6,0,0,0-.73.6,1.63,1.63,0,0,0,.3,2.11,2.41,2.41,0,0,0,1.64.49,3.81,3.81,0,0,0,1.9-.47,2.87,2.87,0,0,0,1.22-1.28,4.45,4.45,0,0,0,.3-1.85V61.39Z" transform="translate(26 18.8)"/><path d="M122.83,66.86v-1.6a4,4,0,0,1-3.46,1.85,4.4,4.4,0,0,1-1.8-.37,3,3,0,0,1-1.24-.93,3.48,3.48,0,0,1-.57-1.37,9.37,9.37,0,0,1-.11-1.72V56h1.85v6a10.75,10.75,0,0,0,.11,1.95,1.92,1.92,0,0,0,.74,1.14,2.28,2.28,0,0,0,1.39.42,3,3,0,0,0,1.56-.42,2.37,2.37,0,0,0,1-1.16,5.81,5.81,0,0,0,.3-2.13V56h1.85V66.86h-1.65Z" transform="translate(26 18.8)"/><path d="M127.37,66.86V56H129v1.55a3.92,3.92,0,0,1,3.47-1.79,4.56,4.56,0,0,1,1.81.35,2.85,2.85,0,0,1,1.24.93,3.56,3.56,0,0,1,.57,1.36,10.58,10.58,0,0,1,.1,1.79v6.7h-1.85V60.23a5,5,0,0,0-.22-1.69,1.78,1.78,0,0,0-.76-0.89,2.43,2.43,0,0,0-1.29-.33,3,3,0,0,0-2,.75,3.69,3.69,0,0,0-.86,2.84v5.95h-1.85Z" transform="translate(26 18.8)"/><path d="M146.12,66.86V65.48a3.39,3.39,0,0,1-3,1.62,4.27,4.27,0,0,1-2.39-.72,4.72,4.72,0,0,1-1.69-2,6.93,6.93,0,0,1-.6-3,7.74,7.74,0,0,1,.54-3,4.28,4.28,0,0,1,1.63-2,4.35,4.35,0,0,1,2.43-.71,3.63,3.63,0,0,1,3,1.5V51.83h1.84v15h-1.71Zm-5.83-5.43a4.73,4.73,0,0,0,.88,3.13,2.66,2.66,0,0,0,2.08,1,2.61,2.61,0,0,0,2.06-1,4.56,4.56,0,0,0,.85-3,5.12,5.12,0,0,0-.86-3.28,2.65,2.65,0,0,0-2.12-1,2.56,2.56,0,0,0-2.06,1A5,5,0,0,0,140.28,61.42Z" transform="translate(26 18.8)"/><path d="M150.71,66.86V56h1.66v1.65a4.5,4.5,0,0,1,1.17-1.53,2,2,0,0,1,1.18-.37,3.6,3.6,0,0,1,1.9.59L156,58a2.63,2.63,0,0,0-1.35-.4,1.75,1.75,0,0,0-1.09.36,2,2,0,0,0-.69,1,7.19,7.19,0,0,0-.31,2.15v5.7h-1.85Z" transform="translate(26 18.8)"/><path d="M157.64,71.05l-0.21-1.73a4.11,4.11,0,0,0,1.06.16,2,2,0,0,0,1-.21,1.68,1.68,0,0,0,.6-0.57,9.05,9.05,0,0,0,.56-1.37l0.16-.45L156.68,56h2l2.27,6.31q0.44,1.2.79,2.52a24.93,24.93,0,0,1,.76-2.48L164.81,56h1.85L162.51,67a21.76,21.76,0,0,1-1,2.47,3.66,3.66,0,0,1-1.13,1.34,2.67,2.67,0,0,1-1.52.43A3.7,3.7,0,0,1,157.64,71.05Z" transform="translate(26 18.8)"/></g><path class="cls-4" d="M122.8,145a85,85,0,0,1,2.9-21.9,87.52,87.52,0,0,1,61.7-62.2,85.44,85.44,0,0,1,33.4-2.4A86.5,86.5,0,0,1,261,74.1c0.3,0.2.5,0.4,0.8,0.6a2.43,2.43,0,0,1-.9,2.1c-16,21.9-31.9,43.8-47.9,65.6a19.41,19.41,0,0,1-2.1,2.9,3,3,0,0,1-1,.4,15.06,15.06,0,0,1-3,.1c-26.8-.1-53.6-0.1-80.4-0.2C125.2,145.6,124,145.9,122.8,145Z" transform="translate(26 18.8)"/><path class="cls-5" d="M122.8,145c0.9,0,1.7.1,2.6,0.1,27.5,0.1,55,.1,82.5.2a11.33,11.33,0,0,1,2.6.1,1.51,1.51,0,0,1,.4.4c1.6,4,2.7,8.1,4.1,12.2,4.5,13.6,8.8,27.3,13.2,40.9,2.9,9,5.9,18.1,8.7,27.2a3,3,0,0,1,.2,2.3,52.31,52.31,0,0,1-10.3,2.8,90.3,90.3,0,0,1-18.7,1.6,87.53,87.53,0,0,1-32.3-7,87.52,87.52,0,0,1-52.1-67.1,75.7,75.7,0,0,1-1-11.6C122.7,146.4,122.8,145.7,122.8,145Z" transform="translate(26 18.8)"/><path class="cls-6" d="M237.1,228.5c-8.8-27.2-17.5-54.4-26.3-81.6a8.33,8.33,0,0,1-.4-1.5,8.08,8.08,0,0,1,3.1-.5c27.1,0.1,54.3.1,81.4,0.2a4.25,4.25,0,0,1,2.7.5,48.89,48.89,0,0,1-.5,10.1,87.54,87.54,0,0,1-58.9,72.6A2,2,0,0,1,237.1,228.5Z" transform="translate(26 18.8)"/><path class="cls-7" d="M297.6,145.6c-0.5,0-1.1.1-1.6,0.1-28.1-.1-56.2-0.1-84.2-0.2h-1.4c0.1-.2.3-0.4,0.4-0.6,5.1-4.6,10.9-8.3,16.5-12.3q18.3-13.35,36.8-26.6c5-3.6,10-7.3,15.1-10.9,0.6-.4,1.1-1.1,1.9-0.8a84.84,84.84,0,0,1,11.7,22.3,86.09,86.09,0,0,1,4.9,27.5A8.64,8.64,0,0,1,297.6,145.6Z" transform="translate(26 18.8)"/><path class="cls-8" d="M281.1,94.2l-58.2,42c-3.7,2.7-7.4,5.4-11.1,8-0.3.2-.7,0.4-1,0.6,1.9-3.2,4.2-6,6.4-9,5.2-7.2,10.5-14.4,15.7-21.6,6.1-8.3,12.2-16.6,18.2-24.9,3.5-4.9,7.1-9.7,10.6-14.6A78.15,78.15,0,0,1,281.1,94.2Z" transform="translate(26 18.8)"/><g class="cls-3"><path d="M293.38,77.47l2,0.5a6.7,6.7,0,0,1-2.25,3.74,6.21,6.21,0,0,1-4,1.29,7.13,7.13,0,0,1-4-1,6.17,6.17,0,0,1-2.32-2.87,10.21,10.21,0,0,1-.79-4A8.85,8.85,0,0,1,283,71a6.14,6.14,0,0,1,2.55-2.66,7.45,7.45,0,0,1,3.65-.91A6.17,6.17,0,0,1,293,68.6a6,6,0,0,1,2.14,3.23l-2,.46a4.65,4.65,0,0,0-1.52-2.39,4,4,0,0,0-2.5-.75,4.86,4.86,0,0,0-2.9.83,4.38,4.38,0,0,0-1.64,2.23,9,9,0,0,0-.47,2.89,9.16,9.16,0,0,0,.56,3.35,4.16,4.16,0,0,0,1.74,2.14,4.87,4.87,0,0,0,2.55.71,4.27,4.27,0,0,0,2.83-1A4.93,4.93,0,0,0,293.38,77.47Z" transform="translate(26 18.8)"/><path d="M297.55,82.74v-15h1.85v15h-1.85Z" transform="translate(26 18.8)"/><path d="M309.71,79.23l1.91,0.24a4.65,4.65,0,0,1-1.67,2.59,5.66,5.66,0,0,1-6.91-.55,5.75,5.75,0,0,1-1.4-4.13,6,6,0,0,1,1.42-4.27,4.79,4.79,0,0,1,3.67-1.52,4.66,4.66,0,0,1,3.57,1.49,5.91,5.91,0,0,1,1.38,4.18c0,0.11,0,.27,0,0.49h-8.12a4.19,4.19,0,0,0,1,2.75,3,3,0,0,0,2.28,1,2.82,2.82,0,0,0,1.73-.53A3.54,3.54,0,0,0,309.71,79.23Zm-6.06-3h6.08a3.69,3.69,0,0,0-.7-2.06,2.83,2.83,0,0,0-2.29-1.07,2.93,2.93,0,0,0-2.14.85A3.37,3.37,0,0,0,303.65,76.25Z" transform="translate(26 18.8)"/><path d="M321,81.4a6.84,6.84,0,0,1-2,1.23,5.7,5.7,0,0,1-2,.36,4,4,0,0,1-2.76-.88,2.89,2.89,0,0,1-1-2.24,3,3,0,0,1,.36-1.46,3,3,0,0,1,1-1.06,4.49,4.49,0,0,1,1.33-.6,13.17,13.17,0,0,1,1.64-.28,16.88,16.88,0,0,0,3.29-.64c0-.25,0-0.41,0-0.48a2,2,0,0,0-.52-1.59,3.09,3.09,0,0,0-2.1-.62,3.26,3.26,0,0,0-1.92.46,2.79,2.79,0,0,0-.92,1.61l-1.8-.25a4.48,4.48,0,0,1,.81-1.87,3.55,3.55,0,0,1,1.63-1.1,7.26,7.26,0,0,1,2.47-.38,6.54,6.54,0,0,1,2.27.33,3,3,0,0,1,1.28.83,2.91,2.91,0,0,1,.57,1.26,10.4,10.4,0,0,1,.09,1.7v2.46a26.26,26.26,0,0,0,.12,3.25,4.12,4.12,0,0,0,.47,1.31h-1.93A3.91,3.91,0,0,1,321,81.4Zm-0.15-4.12a13.54,13.54,0,0,1-3,.7,7,7,0,0,0-1.61.37,1.6,1.6,0,0,0-.73.6,1.63,1.63,0,0,0,.3,2.11,2.41,2.41,0,0,0,1.64.49,3.81,3.81,0,0,0,1.9-.47,2.87,2.87,0,0,0,1.22-1.28,4.45,4.45,0,0,0,.3-1.85V77.28Z" transform="translate(26 18.8)"/><path d="M325.61,82.74V71.85h1.66V73.4a3.92,3.92,0,0,1,3.47-1.79,4.56,4.56,0,0,1,1.81.35,2.85,2.85,0,0,1,1.24.93,3.56,3.56,0,0,1,.57,1.36,10.58,10.58,0,0,1,.1,1.79v6.7h-1.85V76.12a5,5,0,0,0-.22-1.69,1.78,1.78,0,0,0-.76-0.89,2.44,2.44,0,0,0-1.29-.33,3,3,0,0,0-2,.75,3.69,3.69,0,0,0-.86,2.84v5.95h-1.85Z" transform="translate(26 18.8)"/><path d="M337.3,69.83V67.71h1.85v2.12H337.3Zm0,12.91V71.85h1.85V82.74H337.3Z" transform="translate(26 18.8)"/><path d="M342,82.74V71.85h1.66V73.4a3.92,3.92,0,0,1,3.47-1.79,4.56,4.56,0,0,1,1.81.35,2.85,2.85,0,0,1,1.24.93,3.56,3.56,0,0,1,.57,1.36,10.58,10.58,0,0,1,.1,1.79v6.7H349V76.12a5,5,0,0,0-.22-1.69,1.78,1.78,0,0,0-.76-0.89,2.44,2.44,0,0,0-1.29-.33,3,3,0,0,0-2,.75,3.69,3.69,0,0,0-.86,2.84v5.95H342Z" transform="translate(26 18.8)"/><path d="M353.3,83.64l1.79,0.27a1.71,1.71,0,0,0,.63,1.21,3.07,3.07,0,0,0,1.88.51,3.29,3.29,0,0,0,2-.51,2.52,2.52,0,0,0,.94-1.44,11.78,11.78,0,0,0,.13-2.37,3.79,3.79,0,0,1-3,1.43,4.11,4.11,0,0,1-3.48-1.62,6.24,6.24,0,0,1-1.23-3.89,7.24,7.24,0,0,1,.56-2.88,4.52,4.52,0,0,1,1.63-2,4.42,4.42,0,0,1,2.52-.72,3.9,3.9,0,0,1,3.18,1.56V71.85h1.7v9.41a8.94,8.94,0,0,1-.52,3.6,3.8,3.8,0,0,1-1.64,1.68,5.69,5.69,0,0,1-2.76.62,5.21,5.21,0,0,1-3.15-.88A3,3,0,0,1,353.3,83.64Zm1.53-6.54a4.73,4.73,0,0,0,.85,3.13,2.7,2.7,0,0,0,2.13,1,2.73,2.73,0,0,0,2.13-1,4.57,4.57,0,0,0,.86-3.07,4.47,4.47,0,0,0-.89-3,2.74,2.74,0,0,0-2.14-1,2.66,2.66,0,0,0-2.09,1A4.44,4.44,0,0,0,354.83,77.1Z" transform="translate(26 18.8)"/></g></svg>